<svg width="116" height="80" viewBox="0 0 116 80" fill="none" xmlns="http://www.w3.org/2000/svg">
<g clip-path="url(#clip0_121_14924)">
<path d="M3.7783 14.1041H0.0423813V30.339H3.7783V14.1041Z" fill="white"/>
<path d="M16.6994 14.1057V23.6408L10.1278 14.1057H6.77713V30.3404H10.515V20.8054L17.0867 30.3404H20.4357V14.1057H16.6994Z" fill="white"/>
<path d="M33.218 14.1057V23.6408L26.6463 14.1057H23.2955V30.3404H27.0334V20.8054L33.6051 30.3404H36.9541V14.1057H33.218Z" fill="white"/>
<path d="M66.271 14.1057L62.6627 25.3161L59.0545 14.1057H55.1887L60.7298 30.3404H64.5957L70.1368 14.1057H66.271Z" fill="white"/>
<path d="M76.0971 18.6172L77.9022 24.03H74.2933L76.0971 18.6172ZM74.1637 14.1057L68.3653 30.3404H72.2304L73.2626 27.2485H78.933L79.9637 30.3404H83.8302L78.0303 14.1057H74.1637Z" fill="white"/>
<path d="M82.2839 14.1057V17.714H86.9243V30.3404H90.6606V17.714H95.2994V14.1057H82.2839Z" fill="white"/>
<path d="M97.1193 14.1057V30.3404H108.976V26.7322H100.859V23.9H108.074V20.2918H100.859V17.714H108.718V14.1057H97.1193Z" fill="white"/>
<path d="M13.9588 37.7366H17.3076V53.9714H13.5732V45.8532L9.83575 53.9714H7.5158L3.77989 45.8532V53.9714H0.0423813V37.7366H3.3927L8.67576 49.2035L13.9588 37.7366Z" fill="white"/>
<path d="M37.3999 37.7366H41.1359V50.3636H48.4812V53.9714H37.3999V37.7366Z" fill="white"/>
<path d="M50.1058 37.7365H55.646C56.7214 37.7215 57.7891 37.9203 58.7869 38.3216C59.7849 38.7228 60.6932 39.3182 61.459 40.0734C62.2247 40.8286 62.8328 41.7285 63.2479 42.7205C63.6629 43.7128 63.8766 44.7777 63.8766 45.8531C63.8766 46.9286 63.6629 47.9936 63.2479 48.9856C62.8328 49.9779 62.2247 50.8777 61.459 51.633C60.6932 52.3882 59.7849 52.9835 58.7869 53.3848C57.7891 53.786 56.7214 53.9849 55.646 53.9699H50.1058V37.7365ZM55.646 50.3622C58.0938 50.3622 60.0263 48.4296 60.0263 45.8524C60.0263 43.2751 58.0938 41.3426 55.646 41.3426H53.8414V50.3622H55.646Z" fill="white"/>
<path d="M96.9067 37.7366L91.3659 53.9714H87.5005L81.9597 37.7366H85.8252L89.4332 48.9459L93.0411 37.7366H96.9067Z" fill="white"/>
<path d="M46.9028 13.9982C45.2974 13.9979 43.7279 14.4736 42.3929 15.3653C41.0578 16.257 40.0171 17.5245 39.4024 19.0078C38.7876 20.4908 38.6266 22.123 38.9396 23.6976C39.2525 25.2723 40.0253 26.7189 41.1603 27.8543C42.2952 28.9898 43.7415 29.7631 45.3161 30.0767C46.8906 30.3902 48.5229 30.2297 50.0063 29.6157C51.4897 29.0016 52.7576 27.9613 53.6498 26.6266C54.542 25.2918 55.0184 23.7225 55.0187 22.1171C55.0187 19.9644 54.1637 17.8998 52.6417 16.3773C51.1198 14.8547 49.0555 13.999 46.9028 13.9982ZM50.2555 25.4698H43.5533V18.7676H50.2555V25.4698Z" fill="white"/>
<path d="M27.1735 37.5948C25.5676 37.5949 23.9979 38.0716 22.663 38.9644C21.3279 39.8571 20.2878 41.1258 19.6741 42.6097C19.0602 44.0938 18.9004 45.7264 19.2148 47.3013C19.5292 48.8762 20.3036 50.3224 21.4402 51.4569C22.5767 52.5916 24.0244 53.3635 25.5998 53.6751C27.1751 53.9869 28.8077 53.8243 30.2905 53.2078C31.7734 52.5916 33.0403 51.5491 33.9306 50.2126C34.8211 48.8762 35.295 47.3056 35.2925 45.6997C35.2892 43.5488 34.4324 41.4869 32.91 39.9672C31.3877 38.4476 29.3246 37.5942 27.1735 37.5948ZM27.0848 40.8164L31.5596 48.5675H22.6083L27.0848 40.8164Z" fill="white"/>
<path d="M73.6678 37.5948C72.0619 37.5944 70.4917 38.0706 69.1564 38.9628C67.821 39.8552 66.7803 41.1237 66.1661 42.6076C65.5519 44.0915 65.3915 45.7243 65.7056 47.2993C66.0197 48.8744 66.7939 50.321 67.9303 51.4559C69.0667 52.5907 70.5143 53.363 72.0898 53.6749C73.6652 53.9869 75.2979 53.8245 76.781 53.2082C78.264 52.5919 79.5311 51.5496 80.4216 50.213C81.3122 48.8765 81.7861 47.3058 81.7837 45.6997C81.7804 43.5493 80.9239 41.4879 79.4023 39.9685C77.8808 38.4488 75.8184 37.5951 73.6678 37.5948ZM73.6678 49.936C72.8321 49.9364 72.0148 49.6887 71.3197 49.2246C70.6247 48.7604 70.0828 48.1004 69.7628 47.3283C69.4428 46.5562 69.359 45.7065 69.5219 44.8866C69.6849 44.0668 70.0875 43.3138 70.6785 42.7228C71.2695 42.1316 72.0225 41.7291 72.8423 41.5662C73.6622 41.4032 74.5119 41.4871 75.284 41.8071C76.0563 42.1271 76.7162 42.6689 77.1803 43.364C77.6444 44.0591 77.8921 44.8763 77.8918 45.7121C77.8918 46.8324 77.4468 47.9068 76.6546 48.6989C75.8625 49.4911 74.7881 49.936 73.6678 49.936Z" fill="white"/>
<path d="M99.5678 50.8335L98.5386 53.923H94.6752L100.476 37.7007H104.339L110.135 53.9355H106.271L105.236 50.8335H99.5678ZM104.205 47.6134L102.402 42.2039L100.599 47.6134H104.205Z" fill="white"/>
<path d="M0.378418 75.817V59.4309H11.4197V62.2874H3.84284V66.1919H10.8517V69.0482H3.84284V72.9607H11.4518V75.817H0.378418Z" fill="white"/>
<path d="M16.589 71.4733C16.0684 71.4733 15.5929 71.3462 15.1627 71.0925C14.7325 70.8343 14.3883 70.4901 14.1301 70.06C13.8763 69.6296 13.7494 69.1542 13.7494 68.6336C13.7494 68.1088 13.8763 67.6333 14.1301 67.2073C14.3883 66.7772 14.7325 66.435 15.1627 66.1813C15.5929 65.9231 16.0684 65.794 16.589 65.794C17.1138 65.794 17.5892 65.9231 18.0152 66.1813C18.4455 66.435 18.7875 66.7772 19.0414 67.2073C19.2995 67.6333 19.4285 68.1088 19.4285 68.6336C19.4285 69.1542 19.2995 69.6296 19.0414 70.06C18.7875 70.4901 18.4455 70.8343 18.0152 71.0925C17.5892 71.3462 17.1138 71.4733 16.589 71.4733Z" fill="white"/>
<path d="M36.1832 64.7078H32.8143C32.7528 64.2719 32.6271 63.8848 32.4373 63.5463C32.2477 63.2028 32.004 62.9105 31.7067 62.6695C31.4092 62.4284 31.0656 62.2438 30.6759 62.1156C30.2912 61.9875 29.8735 61.9233 29.4222 61.9233C28.6069 61.9233 27.8966 62.1258 27.2915 62.5311C26.6864 62.9309 26.2172 63.5155 25.8839 64.2848C25.5507 65.0487 25.3839 65.977 25.3839 67.0691C25.3839 68.1921 25.5507 69.1357 25.8839 69.8998C26.2224 70.6637 26.6942 71.2406 27.2992 71.6303C27.9043 72.02 28.6043 72.2149 29.399 72.2149C29.8452 72.2149 30.258 72.156 30.6374 72.038C31.022 71.9202 31.363 71.7483 31.6605 71.5226C31.9578 71.2919 32.2041 71.0125 32.399 70.6843C32.5989 70.3561 32.7373 69.9817 32.8143 69.5613L36.1832 69.5766C36.096 70.2998 35.8782 70.9971 35.5294 71.6688C35.1859 72.3355 34.7217 72.9328 34.1372 73.4611C33.5578 73.9841 32.8655 74.3995 32.0605 74.7071C31.2605 75.0097 30.3554 75.161 29.3452 75.161C27.9402 75.161 26.6839 74.8431 25.5763 74.2071C24.4737 73.5712 23.6021 72.6508 22.961 71.4458C22.3252 70.2407 22.0073 68.7819 22.0073 67.0691C22.0073 65.3513 22.3303 63.8898 22.9764 62.6848C23.6225 61.4797 24.4993 60.5619 25.607 59.9312C26.7146 59.2953 27.9608 58.9774 29.3452 58.9774C30.258 58.9774 31.1041 59.1055 31.8836 59.3619C32.6681 59.6183 33.363 59.9927 33.9679 60.4851C34.5731 60.9722 35.0653 61.5695 35.4449 62.2771C35.8294 62.9847 36.0755 63.795 36.1832 64.7078Z" fill="white"/>
<path d="M53.1435 67.0691C53.1435 68.7869 52.818 70.2484 52.1666 71.4534C51.5205 72.6585 50.6386 73.5789 49.5207 74.2147C48.408 74.8455 47.1568 75.161 45.7671 75.161C44.3672 75.161 43.1109 74.8431 41.9981 74.2071C40.8854 73.5712 40.0059 72.6508 39.3598 71.4458C38.7137 70.2407 38.3908 68.7819 38.3908 67.0691C38.3908 65.3513 38.7137 63.8898 39.3598 62.6848C40.0059 61.4797 40.8854 60.5619 41.9981 59.9312C43.1109 59.2953 44.3672 58.9774 45.7671 58.9774C47.1568 58.9774 48.408 59.2953 49.5207 59.9312C50.6386 60.5619 51.5205 61.4797 52.1666 62.6848C52.818 63.8898 53.1435 65.3513 53.1435 67.0691ZM49.7668 67.0691C49.7668 65.9564 49.6002 65.018 49.2669 64.2539C48.9387 63.4898 48.4746 62.9105 47.8747 62.5156C47.2748 62.1208 46.5722 61.9233 45.7671 61.9233C44.9621 61.9233 44.2595 62.1208 43.6596 62.5156C43.0597 62.9105 42.5929 63.4898 42.2597 64.2539C41.9315 65.018 41.7673 65.9564 41.7673 67.0691C41.7673 68.182 41.9315 69.1203 42.2597 69.8843C42.5929 70.6484 43.0597 71.2279 43.6596 71.6227C44.2595 72.0176 44.9621 72.2149 45.7671 72.2149C46.5722 72.2149 47.2748 72.0176 47.8747 71.6227C48.4746 71.2279 48.9387 70.6484 49.2669 69.8843C49.6002 69.1203 49.7668 68.182 49.7668 67.0691Z" fill="white"/>
<path d="M55.7482 59.1927H59.8557L64.1938 69.7767H64.3784L68.7165 59.1927H72.8241V74.9455H69.5934V64.6925H69.4627L65.386 74.8687H63.1862L59.1095 64.6539H58.9788V74.9455H55.7482V59.1927Z" fill="white"/>
<path d="M75.6174 74.9455V59.1927H86.2322V61.9386H78.948V65.6924H85.6861V68.4383H78.948V72.1996H86.263V74.9455H75.6174Z" fill="white"/>
<path d="M89.0379 74.9455V59.1927H95.253C96.4425 59.1927 97.458 59.4055 98.2989 59.8311C99.1449 60.2517 99.7886 60.849 100.23 61.6234C100.676 62.3925 100.899 63.2976 100.899 64.3385C100.899 65.3846 100.673 66.2846 100.222 67.0384C99.7706 67.787 99.1169 68.3613 98.2604 68.7613C97.4092 69.1613 96.3786 69.3612 95.1683 69.3612H91.0071V66.6846H94.6299C95.2657 66.6846 95.794 66.5973 96.2144 66.423C96.635 66.2487 96.9476 65.9871 97.1528 65.6385C97.3631 65.2898 97.4682 64.8565 97.4682 64.3385C97.4682 63.8156 97.3631 63.3745 97.1528 63.0156C96.9476 62.6566 96.6323 62.3848 96.2067 62.2003C95.7863 62.0105 95.2554 61.9156 94.6146 61.9156H92.3685V74.9455H89.0379ZM97.5451 67.7767L101.46 74.9455H97.7835L93.9531 67.7767H97.5451Z" fill="white"/>
<path d="M102.73 61.9386V59.1927H115.668V61.9386H110.845V74.9455H107.553V61.9386H102.73ZM106.745 79.9913L107.699 76.1915H110.729L109.045 79.9913H106.745Z" fill="white"/>
<path d="M0.348587 7.54916V0.101818H3.26735C3.82847 0.101818 4.3065 0.209698 4.70144 0.425458C5.09639 0.638793 5.39742 0.935766 5.60452 1.31638C5.81403 1.69456 5.9188 2.13093 5.9188 2.62548C5.9188 3.12003 5.81283 3.55639 5.60091 3.93459C5.38899 4.31277 5.08194 4.60732 4.67978 4.81823C4.28 5.02914 3.79596 5.13459 3.22761 5.13459H1.36726V3.87277H2.97475C3.27579 3.87277 3.52382 3.82064 3.71889 3.71639C3.91636 3.60972 4.06327 3.46306 4.15958 3.27639C4.25832 3.0873 4.3077 2.87033 4.3077 2.62548C4.3077 2.3782 4.25832 2.16244 4.15958 1.9782C4.06327 1.79153 3.91636 1.64729 3.71889 1.54547C3.52141 1.44123 3.27096 1.3891 2.96753 1.3891H1.91272V7.54916H0.348587Z" fill="white"/>
<path d="M6.93476 7.54916V0.101818H9.85352C10.4122 0.101818 10.8891 0.202425 11.284 0.40364C11.6814 0.602429 11.9836 0.884857 12.1907 1.25092C12.4002 1.61456 12.505 2.04244 12.505 2.53457C12.505 3.02912 12.399 3.45457 12.1871 3.81095C11.9752 4.16488 11.6681 4.43641 11.2659 4.6255C10.8662 4.81459 10.3821 4.90914 9.81378 4.90914H7.85952V3.64368H9.56092C9.85954 3.64368 10.1076 3.60246 10.3051 3.52003C10.5025 3.43761 10.6494 3.31397 10.7458 3.14912C10.8445 2.98428 10.8939 2.77942 10.8939 2.53457C10.8939 2.2873 10.8445 2.07881 10.7458 1.90911C10.6494 1.73941 10.5013 1.61092 10.3015 1.52365C10.104 1.43395 9.85473 1.3891 9.55369 1.3891H8.49889V7.54916H6.93476ZM10.93 4.16003L12.7687 7.54916H11.042L9.24303 4.16003H10.93Z" fill="white"/>
<path d="M20.4087 3.8255C20.4087 4.63761 20.2559 5.32854 19.95 5.89823C19.6465 6.46794 19.2322 6.90309 18.7073 7.20371C18.1848 7.50189 17.5972 7.65098 16.9445 7.65098C16.2871 7.65098 15.6971 7.50067 15.1745 7.20007C14.6519 6.89947 14.2389 6.4643 13.9355 5.89461C13.632 5.3249 13.4803 4.63519 13.4803 3.8255C13.4803 3.01337 13.632 2.32244 13.9355 1.75275C14.2389 1.18304 14.6519 0.749098 15.1745 0.450914C15.6971 0.150305 16.2871 0 16.9445 0C17.5972 0 18.1848 0.150305 18.7073 0.450914C19.2322 0.749098 19.6465 1.18304 19.95 1.75275C20.2559 2.32244 20.4087 3.01337 20.4087 3.8255ZM18.823 3.8255C18.823 3.29943 18.7448 2.85579 18.5881 2.49457C18.434 2.13335 18.2161 1.85942 17.9343 1.67274C17.6525 1.48608 17.3226 1.39274 16.9445 1.39274C16.5664 1.39274 16.2365 1.48608 15.9547 1.67274C15.673 1.85942 15.4538 2.13335 15.2973 2.49457C15.1432 2.85579 15.0661 3.29943 15.0661 3.8255C15.0661 4.35156 15.1432 4.79519 15.2973 5.15641C15.4538 5.51763 15.673 5.79156 15.9547 5.97823C16.2365 6.16491 16.5664 6.25825 16.9445 6.25825C17.3226 6.25825 17.6525 6.16491 17.9343 5.97823C18.2161 5.79156 18.434 5.51763 18.5881 5.15641C18.7448 4.79519 18.823 4.35156 18.823 3.8255Z" fill="white"/>
<path d="M26.4729 2.50911C26.4223 2.33215 26.3514 2.17577 26.2599 2.04002C26.1684 1.90184 26.0563 1.78546 25.9238 1.69092C25.7938 1.59396 25.6444 1.52001 25.4759 1.46911C25.3098 1.4182 25.1256 1.39274 24.9232 1.39274C24.5452 1.39274 24.2128 1.48729 23.9263 1.67638C23.642 1.86546 23.4205 2.14062 23.2615 2.50184C23.1026 2.86064 23.0231 3.29943 23.0231 3.81821C23.0231 4.33701 23.1013 4.77823 23.258 5.14187C23.4145 5.5055 23.6361 5.78309 23.9226 5.97461C24.2091 6.1637 24.5476 6.25825 24.9377 6.25825C25.2917 6.25825 25.5939 6.19521 25.8444 6.06914C26.0973 5.94067 26.2898 5.76005 26.4223 5.52732C26.5572 5.29459 26.6247 5.01943 26.6247 4.70186L26.9426 4.74914H25.0353V3.56368H28.1311V4.50186C28.1311 5.15641 27.9937 5.71885 27.7192 6.18914C27.4447 6.65703 27.0665 7.01825 26.5849 7.2728C26.1034 7.52491 25.5517 7.65098 24.9305 7.65098C24.2369 7.65098 23.6277 7.49705 23.1026 7.18916C22.5776 6.87885 22.1682 6.43885 21.8745 5.86914C21.5831 5.29703 21.4374 4.61823 21.4374 3.83277C21.4374 3.22912 21.524 2.69093 21.6974 2.2182C21.8733 1.74304 22.1189 1.34062 22.4343 1.01092C22.7498 0.681218 23.117 0.430308 23.536 0.258184C23.9552 0.0860614 24.4091 0 24.8979 0C25.3169 0 25.7072 0.0618187 26.0683 0.185457C26.4296 0.30667 26.7498 0.478792 27.0292 0.701825C27.311 0.924857 27.5409 1.19031 27.7192 1.4982C27.8973 1.80366 28.0118 2.14062 28.0624 2.50911H26.4729Z" fill="white"/>
<path d="M29.306 7.54916V0.101818H32.2247C32.7834 0.101818 33.2601 0.202425 33.6551 0.40364C34.0525 0.602429 34.3547 0.884857 34.5619 1.25092C34.7714 1.61456 34.8762 2.04244 34.8762 2.53457C34.8762 3.02912 34.7702 3.45457 34.5583 3.81095C34.3463 4.16488 34.0392 4.43641 33.6371 4.6255C33.2373 4.81459 32.7533 4.90914 32.1849 4.90914H30.2306V3.64368H31.932C32.2308 3.64368 32.4788 3.60246 32.6763 3.52003C32.8737 3.43761 33.0207 3.31397 33.1169 3.14912C33.2157 2.98428 33.265 2.77942 33.265 2.53457C33.265 2.2873 33.2157 2.07881 33.1169 1.90911C33.0207 1.73941 32.8725 1.61092 32.6726 1.52365C32.4751 1.43395 32.2259 1.3891 31.9249 1.3891H30.8701V7.54916H29.306ZM33.3011 4.16003L35.1399 7.54916H33.4132L31.6141 4.16003H33.3011Z" fill="white"/>
<path d="M37.2566 7.54916H35.5805L38.1344 0.101818H40.1501L42.7005 7.54916H41.0243L39.1712 1.80366H39.1134L37.2566 7.54916ZM37.1519 4.62186H41.1109V5.85096H37.1519V4.62186Z" fill="white"/>
<path d="M43.5909 0.101818H45.5198L47.5571 5.1055H47.6439L49.6812 0.101818H51.6103V7.54916H50.0931V2.70184H50.0317L48.1171 7.5128H47.0839L45.1695 2.68366H45.108V7.54916H43.5909V0.101818Z" fill="white"/>
<path d="M61.4412 0.101818V7.54916H60.0901L56.8716 2.86184H56.8174V7.54916H55.2533V0.101818H56.6259L59.8193 4.7855H59.8843V0.101818H61.4412Z" fill="white"/>
<path d="M64.0087 7.54916H62.3326L64.8865 0.101818H66.9021L69.4524 7.54916H67.7762L65.9231 1.80366H65.8655L64.0087 7.54916ZM63.9038 4.62186H67.863V5.85096H63.9038V4.62186Z" fill="white"/>
<path d="M70.1705 1.40001V0.101818H76.2463V1.40001H73.9813V7.54916H72.4354V1.40001H70.1705ZM72.0561 9.93464L72.504 8.13827H73.9273L73.1362 9.93464H72.0561Z" fill="white"/>
<path d="M78.8174 0.101818V7.54916H77.2533V0.101818H78.8174Z" fill="white"/>
<path d="M86.9027 3.8255C86.9027 4.63761 86.7498 5.32854 86.4439 5.89823C86.1405 6.46794 85.7264 6.90309 85.2012 7.20371C84.6787 7.50189 84.0912 7.65098 83.4384 7.65098C82.781 7.65098 82.191 7.50067 81.6685 7.20007C81.1458 6.89947 80.7329 6.4643 80.4295 5.89461C80.126 5.3249 79.9742 4.63519 79.9742 3.8255C79.9742 3.01337 80.126 2.32244 80.4295 1.75275C80.7329 1.18304 81.1458 0.749098 81.6685 0.450914C82.191 0.150305 82.781 0 83.4384 0C84.0912 0 84.6787 0.150305 85.2012 0.450914C85.7264 0.749098 86.1405 1.18304 86.4439 1.75275C86.7498 2.32244 86.9027 3.01337 86.9027 3.8255ZM85.317 3.8255C85.317 3.29943 85.2387 2.85579 85.082 2.49457C84.9279 2.13335 84.7101 1.85942 84.4282 1.67274C84.1464 1.48608 83.8167 1.39274 83.4384 1.39274C83.0604 1.39274 82.7305 1.48608 82.4486 1.67274C82.167 1.85942 81.9477 2.13335 81.7912 2.49457C81.6371 2.85579 81.5601 3.29943 81.5601 3.8255C81.5601 4.35156 81.6371 4.79519 81.7912 5.15641C81.9477 5.51763 82.167 5.79156 82.4486 5.97823C82.7305 6.16491 83.0604 6.25825 83.4384 6.25825C83.8167 6.25825 84.1464 6.16491 84.4282 5.97823C84.7101 5.79156 84.9279 5.51763 85.082 5.15641C85.2387 4.79519 85.317 4.35156 85.317 3.8255Z" fill="white"/>
<path d="M94.2492 0.101818V7.54916H92.8983L89.6797 2.86184H89.6255V7.54916H88.0614V0.101818H89.4341L92.6273 4.7855H92.6923V0.101818H94.2492Z" fill="white"/>
<path d="M96.8167 7.54916H95.1406L97.6945 0.101818H99.7102L102.261 7.54916H100.584L98.7313 1.80366H98.6735L96.8167 7.54916ZM96.712 4.62186H100.671V5.85096H96.712V4.62186Z" fill="white"/>
<path d="M103.151 7.54916V0.101818H104.715V6.25096H107.887V7.54916H103.151Z" fill="white"/>
</g>
<defs>
<clipPath id="clip0_121_14924">
<rect width="115.73" height="80" fill="white"/>
</clipPath>
</defs>
</svg>
