<svg width="385" height="300" viewBox="0 0 385 300" fill="none" xmlns="http://www.w3.org/2000/svg">
<g clip-path="url(#clip0_4_643)">
<path fill-rule="evenodd" clip-rule="evenodd" d="M107.069 134.214C107.069 134.214 69.8908 130.042 55.494 156.892C50.6494 165.927 14.7412 249.708 10.9347 282.726C10.9347 282.726 2.28748 285.459 1.08648 289.894H52.0256C52.5654 289.894 53.0524 289.57 53.2606 289.072C56.9775 280.186 89.5945 202.203 89.5945 202.203C89.5945 202.203 93.7883 272.892 94.6447 287.335C94.7305 288.773 95.9219 289.894 97.3624 289.894C107.019 289.894 140.654 289.894 140.654 289.894C140.654 289.894 139.46 285.235 130.725 282.726C130.725 282.726 135.449 172.762 122.335 145.23L107.069 134.214Z" fill="url(#paint0_linear_4_643)"/>
<path fill-rule="evenodd" clip-rule="evenodd" d="M82.3729 219.468L86.9709 173.111C87.0023 172.789 87.2766 172.547 87.6011 172.555C87.9236 172.563 88.1853 172.821 88.2 173.145L89.5107 202.403L82.3729 219.468Z" fill="#13524E"/>
<path fill-rule="evenodd" clip-rule="evenodd" d="M131.552 240.357C131.552 241.06 131.55 241.757 131.548 242.45H91.9814L91.8578 240.357H131.552ZM22.1059 240.357H73.6359L72.7609 242.45H21.4032L21.4143 242.416C21.6365 241.751 21.8599 241.088 22.0843 240.422L22.1059 240.357Z" fill="#82B5B2"/>
<path d="M78.5628 69.8275C86.1195 69.8275 92.2453 63.706 92.2453 56.1548C92.2453 48.6036 86.1195 42.4822 78.5628 42.4822C71.0061 42.4822 64.8803 48.6036 64.8803 56.1548C64.8803 63.706 71.0061 69.8275 78.5628 69.8275Z" fill="#A8CFCC"/>
<path fill-rule="evenodd" clip-rule="evenodd" d="M77.553 42.519C78.244 45.3057 79.2427 52.3333 74.0442 58.5428C73.4931 57.651 72.4959 57.0547 71.3583 57.0547C69.6244 57.0547 68.217 58.4394 68.217 60.1446C68.217 61.85 69.6244 63.2347 71.3583 63.2347C71.6581 63.2347 71.9483 63.1931 72.2232 63.1157C72.2624 64.1926 71.9837 65.6982 70.6621 67.3155C67.1655 64.8382 64.8811 60.761 64.8811 56.1548C64.8811 48.9482 70.4726 43.0365 77.553 42.519Z" fill="black"/>
<path fill-rule="evenodd" clip-rule="evenodd" d="M67.3181 63.073C66.9291 63.3011 65.9494 63.2667 65.5038 63.3561C64.0424 63.6488 62.5893 63.9884 61.1424 64.3457C56.6678 65.4507 52.2568 66.7803 48.0824 68.7554C45.0453 70.1924 41.8655 72.0114 40.4285 75.1959C38.3397 79.8248 42.052 83.9795 46.8782 83.5447C51.5328 83.1254 55.1858 79.7556 58.2871 76.5866C61.9157 72.8789 66.0589 68.8824 68.8409 64.4575" fill="black"/>
<path fill-rule="evenodd" clip-rule="evenodd" d="M51.3479 93.8049C49.0321 96.2704 28.6595 118.527 13.3521 135.698C8.21647 141.506 7.75123 150.08 12.2284 156.409C12.2278 156.411 12.228 156.411 12.228 156.411C16.1603 161.97 23.2778 164.29 29.7344 162.119C36.7304 159.763 46.2851 154.323 57.4042 142.135C63.0524 135.944 67.5425 130.291 71.2477 126.83C71.2477 126.83 87.5027 132.056 95.8633 123.099C95.8633 123.099 116.274 149.159 136.026 159.547C143.838 163.606 153.464 160.882 157.984 153.331C160.088 149.845 160.972 145.648 158.604 141.091C148.235 121.132 131.954 106.029 107.069 82.1199C102.239 77.4776 93.7925 70.8469 77.4337 74.6308C71.2701 76.0565 63.7572 80.5928 51.3479 93.8049Z" fill="#A8CFCC"/>
<path fill-rule="evenodd" clip-rule="evenodd" d="M87.1593 110.212C87.1593 110.212 87.6954 110.074 88.3277 110.131C88.8637 110.179 89.4981 110.368 89.8248 111.043C90.2624 111.949 89.6007 112.697 88.5915 113.462C86.5459 115.013 82.9424 116.37 79.7515 117.668C79.3223 117.842 79.1171 118.331 79.2909 118.759C79.4646 119.187 79.9546 119.393 80.3817 119.219C83.7171 117.863 87.4671 116.416 89.6049 114.796C91.3888 113.443 92.107 111.919 91.3323 110.315C90.6999 109.006 89.519 108.558 88.4784 108.464C87.5341 108.378 86.7322 108.593 86.7322 108.593C86.2841 108.711 86.0182 109.17 86.1355 109.616C86.2548 110.063 86.7134 110.33 87.1593 110.212Z" fill="#82B5B2"/>
<path fill-rule="evenodd" clip-rule="evenodd" d="M93.6459 106.792C93.6459 106.792 94.6426 105.826 95.9994 105.055C96.8473 104.574 97.8398 104.156 98.8134 104.161C99.2113 104.162 99.586 104.335 99.8436 104.634C100.101 104.934 100.214 105.33 100.153 105.72C99.9901 106.66 99.5421 107.936 98.3863 109.153C96.7971 110.828 92.7749 115.885 79.9651 117.506C79.5065 117.564 79.182 117.983 79.2406 118.441C79.2992 118.899 79.718 119.224 80.1765 119.166C93.6962 117.455 97.9235 112.073 99.6028 110.305C101.047 108.784 101.598 107.186 101.808 105.991C101.944 105.102 101.69 104.215 101.117 103.545C100.541 102.875 99.7033 102.489 98.8197 102.488C97.5634 102.481 96.2674 102.978 95.1723 103.6C93.6166 104.483 92.4776 105.591 92.4776 105.591C92.1468 105.913 92.1384 106.444 92.4608 106.775C92.7833 107.106 93.313 107.114 93.6459 106.792Z" fill="#82B5B2"/>
<path fill-rule="evenodd" clip-rule="evenodd" d="M95.8235 112.276C95.8235 112.276 93.6773 117.75 91.5584 119.866C91.2318 120.192 91.2318 120.723 91.5584 121.049C91.8851 121.376 92.4169 121.376 92.7435 121.049C95.0257 118.769 97.3813 112.893 97.3813 112.893C97.5509 112.464 97.3415 111.977 96.9102 111.807C96.4809 111.636 95.9931 111.847 95.8235 112.276Z" fill="#82B5B2"/>
<path fill-rule="evenodd" clip-rule="evenodd" d="M89.3725 115.887V117.857C89.3725 118.319 89.7473 118.694 90.21 118.694C90.6706 118.694 91.0475 118.319 91.0475 117.857V115.887C91.0475 115.425 90.6706 115.05 90.21 115.05C89.7473 115.05 89.3725 115.425 89.3725 115.887Z" fill="#82B5B2"/>
<path fill-rule="evenodd" clip-rule="evenodd" d="M95.3628 84.2604C95.3628 84.2604 94.0228 84.8152 93.3926 86.3416C93.0052 87.2785 92.8629 88.61 93.5957 90.4391C94.4416 92.5466 96.617 98.785 93.6606 103.587C93.4177 103.98 93.5413 104.496 93.9328 104.738C94.3285 104.98 94.8436 104.858 95.0865 104.464C98.3821 99.1145 96.0915 92.1646 95.1493 89.8162C94.6426 88.5485 94.6719 87.6298 94.9399 86.9805C95.2938 86.1279 96.0203 85.7994 96.0203 85.7994C96.4453 85.6178 96.6442 85.1255 96.4621 84.7008C96.2799 84.2763 95.7879 84.0788 95.3628 84.2604Z" fill="#82B5B2"/>
<path fill-rule="evenodd" clip-rule="evenodd" d="M63.3882 135.371C61.5482 137.486 59.5606 139.771 57.4042 142.135C46.2851 154.323 36.7304 159.763 29.7344 162.119C23.2778 164.29 16.1603 161.97 12.228 156.411C12.228 156.411 12.2278 156.411 12.2284 156.409C7.75123 150.08 8.21647 141.506 13.3521 135.698C28.6595 118.527 49.0321 96.2704 51.3479 93.8049C63.7572 80.5928 71.2701 76.0565 77.4337 74.6308C93.7925 70.8469 102.239 77.4776 107.069 82.1199C131.954 106.029 148.235 121.132 158.604 141.091C160.972 145.648 160.088 149.845 157.984 153.331C154.333 159.43 147.35 162.38 140.683 161.15L135.019 159.005C128.198 155.239 121.338 149.693 115.306 144.077C111.872 140.512 109.519 137.796 109.519 137.796L119.525 113.104L103.409 101.685C102.731 97.013 102.463 94.0273 101.016 90.9315C100.622 90.0846 100.139 89.2295 99.5337 88.3294C96.7217 84.1388 94.9504 86.6332 94.9504 86.6332C93.6438 85.0215 92.4315 84.2792 91.6233 83.9383C91.1962 83.7686 90.7167 83.7986 90.3147 84.0199C89.9148 84.2413 89.6342 84.6309 89.5504 85.0813C89.3557 86.189 90.0341 87.4379 90.4005 88.0112C90.5136 88.1848 90.6434 88.3474 90.7879 88.4964C98.7297 96.7006 94.339 105.91 94.339 105.91C90.4152 110.736 83.4093 110.622 83.4093 110.622C78.2858 111.034 75.0635 109.455 73.236 108.016C70.5187 105.882 66.9247 105.22 63.6244 106.246C55.5696 108.811 46.8782 116.452 46.8782 116.452L63.3882 135.371Z" fill="url(#paint1_linear_4_643)"/>
<path fill-rule="evenodd" clip-rule="evenodd" d="M71.271 126.837L79.4814 117.662C79.4814 117.662 89.3746 122.175 92.509 118.644L96.4851 123.878C96.0769 123.374 95.8633 123.099 95.8633 123.099C87.687 131.859 71.9561 127.052 71.271 126.837Z" fill="#82B5B2"/>
<path fill-rule="evenodd" clip-rule="evenodd" d="M48.7202 114.932C47.5606 115.852 46.8783 116.452 46.8783 116.452L48.2292 118L23.6779 138.338C23.233 138.706 22.5726 138.643 22.2037 138.2C21.835 137.754 21.8967 137.095 22.3417 136.727L48.4622 115.089C48.5422 115.023 48.6293 114.971 48.7202 114.932ZM118.319 112.249C118.539 112.263 118.759 112.347 118.939 112.502L142.848 133.206C143.284 133.584 143.332 134.245 142.953 134.682C142.574 135.118 141.912 135.165 141.477 134.787L118.723 115.084L119.525 113.104L118.319 112.249ZM51.1016 113.119C51.225 111.105 51.5744 107.163 52.5229 103.715C52.6251 103.397 52.9247 103.184 53.2589 103.192C53.5931 103.2 53.882 103.427 53.9685 103.75C54.4831 105.658 55.1887 108.285 55.664 110.056C53.9794 111.084 52.4224 112.155 51.1016 113.119ZM108.809 105.512L109.932 100.173C109.973 99.973 110.135 99.8196 110.336 99.7866C110.537 99.7535 110.738 99.8475 110.84 100.023C111.475 101.424 112.429 104.121 112.892 108.405L108.809 105.512Z" fill="#13524E"/>
<path d="M82.6851 111.017C90.0299 111.017 95.9839 105.149 95.9839 97.91C95.9839 90.6713 90.0299 84.8032 82.6851 84.8032C75.3404 84.8032 69.3863 90.6713 69.3863 97.91C69.3863 105.149 75.3404 111.017 82.6851 111.017Z" fill="#FFCD80"/>
<path d="M82.6556 108.81C88.8103 108.81 93.7996 103.893 93.7996 97.8273C93.7996 91.7615 88.8103 86.8442 82.6556 86.8442C76.501 86.8442 71.5117 91.7615 71.5117 97.8273C71.5117 103.893 76.501 108.81 82.6556 108.81Z" fill="#FFB000"/>
<path d="M78.904 102.145C80.1379 103.042 81.5457 103.44 83.1506 103.379C85.0613 103.262 85.9634 102.543 85.9186 101.219C85.8486 100.141 85.169 99.5224 83.8798 99.363C83.2783 99.3117 82.6357 99.2625 81.9301 99.1961C80.6628 99.056 79.6662 98.637 78.9621 97.9583C78.2361 97.2602 77.849 96.3818 77.7803 95.3241C77.6984 94.0629 78.0435 93.0251 78.8568 92.2086C79.6289 91.3941 80.7757 90.9484 82.2751 90.8523C84.1075 90.8006 85.7236 91.2292 87.122 92.1178L86.006 93.9904C84.8702 93.3335 83.6321 93.0082 82.315 93.0543C81.6366 93.0886 81.0715 93.2804 80.6417 93.649C80.1913 94.0187 79.9789 94.56 80.0033 95.2527C80.031 95.6798 80.2193 96.0377 80.5707 96.3669C80.9221 96.696 81.4711 96.8928 82.1999 96.9989C82.5945 97.0402 83.1549 97.0935 83.8592 97.1396C85.2485 97.2531 86.2876 97.6904 86.997 98.4505C87.6845 99.1913 88.0716 100.07 88.139 101.107C88.257 103.877 86.6212 105.367 83.2728 105.577C81.1141 105.686 79.1997 105.109 77.5513 103.866L78.904 102.145Z" fill="#FFCD80"/>
<path fill-rule="evenodd" clip-rule="evenodd" d="M81.9611 89.0205L81.5741 107.234L84.1128 107.233L84.1165 89.02L81.9611 89.0205Z" fill="#FFCD80"/>
<path fill-rule="evenodd" clip-rule="evenodd" d="M30.6452 258.265C29.381 258.037 28.4212 256.93 28.4212 255.602V250.187C28.4212 248.693 29.6352 247.479 31.1304 247.479H61.5627C63.0581 247.479 64.2721 248.693 64.2721 250.187V255.602C64.2721 256.93 63.3123 258.037 62.048 258.265C63.3123 258.495 64.2721 259.602 64.2721 260.931V266.346C64.2721 267.674 63.3123 268.779 62.048 269.009C63.3123 269.237 64.2721 270.344 64.2721 271.673V277.087C64.2721 278.416 63.3123 279.523 62.048 279.751C63.3123 279.981 64.2721 281.086 64.2721 282.414V287.829C64.2721 289.323 63.0581 290.537 61.5627 290.537H31.1304C29.6352 290.537 28.4212 289.323 28.4212 287.829V282.414C28.4212 281.086 29.381 279.981 30.6452 279.751C29.381 279.523 28.4212 278.416 28.4212 277.087V271.673C28.4212 270.344 29.381 269.237 30.6452 269.009C29.381 268.779 28.4212 267.674 28.4212 266.346V260.931C28.4212 259.602 29.381 258.495 30.6452 258.265Z" fill="#FFCD80"/>
<path fill-rule="evenodd" clip-rule="evenodd" d="M57.0884 247.479V256.144H64.1165C64.1504 256.144 64.1839 256.146 64.2168 256.148C64.0059 257.177 63.2109 257.993 62.194 258.236H62.1399V258.248C62.1096 258.255 62.079 258.261 62.048 258.265C62.079 258.271 62.1096 258.278 62.1399 258.284V266.883H64.1165C64.1504 266.883 64.1841 266.885 64.2172 266.887C64.0074 267.915 63.2159 268.731 62.2023 268.976H59.9632V277.625H64.1165C64.1506 277.625 64.1843 277.625 64.2176 277.629C64.0091 278.652 63.221 279.468 62.2107 279.717H56.6573V290.537H54.5635V279.717H52.5822V290.537H50.4884V279.717H36.5826V290.537H34.4888V279.717H30.4825C29.4708 279.468 28.6817 278.65 28.4746 277.625H41.631V268.976H30.4909C29.4756 268.731 28.6831 267.913 28.475 266.883H31.4911V258.236H30.4993C29.4809 257.993 28.685 257.173 28.4754 256.144H37.269V247.479H39.3628V256.144H50.7426V247.479H52.8364V256.144H54.9946V247.479H57.0884ZM43.7248 268.976V277.625H45.3075V268.976H43.7248ZM47.4013 268.976V277.625H57.8694V268.976H47.4013ZM33.5849 258.236V266.883H49.1952V258.236H33.5849ZM51.289 258.236V266.883H60.0461V258.236H51.289Z" fill="#FDA425"/>
<path fill-rule="evenodd" clip-rule="evenodd" d="M312.1 114.075C310.668 113.369 309.682 111.894 309.682 110.19V101.531C309.682 99.1411 311.623 97.2012 314.014 97.2012H379.814C382.205 97.2012 384.146 99.1411 384.146 101.531V110.19C384.146 111.894 383.16 113.369 381.725 114.075C383.16 114.782 384.146 116.257 384.146 117.961V126.62C384.146 128.118 383.384 129.439 382.226 130.216C383.384 130.994 384.146 132.315 384.146 133.813V142.473C384.146 143.971 383.384 145.291 382.226 146.069C383.384 146.845 384.146 148.168 384.146 149.664V158.324C384.146 159.822 383.384 161.142 382.226 161.92C383.384 162.699 384.146 164.019 384.146 165.517V174.177C384.146 175.673 383.384 176.995 382.226 177.774C383.384 178.55 384.146 179.872 384.146 181.368V190.028C384.146 191.526 383.384 192.846 382.226 193.625C383.384 194.403 384.146 195.723 384.146 197.221V205.881C384.146 207.377 383.384 208.7 382.226 209.476C383.384 210.254 384.146 211.574 384.146 213.072V221.732C384.146 223.231 383.384 224.551 382.226 225.329C383.384 226.107 384.146 227.428 384.146 228.926V237.586C384.146 239.082 383.384 240.404 382.226 241.18C383.384 241.959 384.146 243.279 384.146 244.777V253.437C384.146 254.935 383.384 256.255 382.226 257.033C383.384 257.81 384.146 259.132 384.146 260.63V269.288C384.146 270.786 383.384 272.108 382.226 272.885C383.384 273.663 384.146 274.983 384.146 276.481V285.141C384.146 287.531 382.205 289.47 379.814 289.47H314.014C311.623 289.47 309.682 287.531 309.682 285.141V276.481C309.682 274.983 310.444 273.663 311.602 272.885C310.444 272.108 309.682 270.786 309.682 269.288V260.63C309.682 259.132 310.444 257.81 311.602 257.033C310.444 256.255 309.682 254.935 309.682 253.437V244.777C309.682 243.279 310.444 241.959 311.602 241.18C310.444 240.404 309.682 239.082 309.682 237.586V228.926C309.682 227.428 310.444 226.107 311.602 225.329C310.444 224.551 309.682 223.231 309.682 221.732V213.072C309.682 211.574 310.444 210.254 311.602 209.476C310.444 208.7 309.682 207.377 309.682 205.881V197.221C309.682 195.723 310.444 194.403 311.602 193.625C310.444 192.846 309.682 191.526 309.682 190.028V181.368C309.682 179.872 310.444 178.55 311.602 177.774C310.444 176.995 309.682 175.673 309.682 174.177V165.517C309.682 164.019 310.444 162.699 311.602 161.92C310.444 161.142 309.682 159.822 309.682 158.324V149.664C309.682 148.168 310.444 146.845 311.602 146.069C310.444 145.291 309.682 143.971 309.682 142.473V133.813C309.682 132.315 310.444 130.994 311.602 130.216C310.444 129.439 309.682 128.118 309.682 126.62V117.961C309.682 116.257 310.668 114.782 312.1 114.075Z" fill="#FFCD80"/>
<path fill-rule="evenodd" clip-rule="evenodd" d="M363.915 97.2012V111.879H371.935C372.041 111.415 372.458 111.068 372.954 111.068C373.451 111.068 373.867 111.415 373.974 111.879H383.802C383.425 112.767 382.762 113.503 381.926 113.971H374.001V128.18H383.855C383.532 129.014 382.958 129.724 382.226 130.216C382.253 130.235 382.278 130.253 382.305 130.272H380.469V144.381C380.469 144.414 380.467 144.448 380.465 144.481H383.652C383.314 145.121 382.822 145.667 382.226 146.069C382.448 146.218 382.655 146.387 382.845 146.573H371.796V159.993H383.811C383.482 160.78 382.925 161.45 382.226 161.92C382.303 161.973 382.381 162.029 382.454 162.086H378.086V175.83H383.817C383.488 176.625 382.929 177.299 382.226 177.774C382.297 177.82 382.366 177.87 382.435 177.922H370.653V191.687H383.817C383.486 192.478 382.929 193.152 382.226 193.625C382.299 193.675 382.37 193.725 382.439 193.78H377.653V207.672H383.756C383.423 208.407 382.889 209.03 382.226 209.476C382.358 209.566 382.485 209.662 382.607 209.765H368.597V223.337H383.838C383.511 224.151 382.946 224.846 382.226 225.329C382.274 225.36 382.32 225.394 382.366 225.43H374.686V238.99H383.911C383.62 239.837 383.076 240.565 382.366 241.082H367.933V255.067H383.827C383.501 255.87 382.938 256.554 382.226 257.033C382.284 257.073 382.343 257.115 382.402 257.159H375.984V270.715H383.905C383.608 271.564 383.055 272.292 382.337 272.807H361.158V289.47H359.064V272.807H354.835V289.47H352.741V272.807H325.239V289.47H323.145V272.807H311.491C310.773 272.292 310.22 271.564 309.923 270.715H313.643V257.159H311.426C311.483 257.115 311.541 257.073 311.602 257.033C310.89 256.554 310.327 255.87 309.998 255.067H323.449V241.082H311.462C310.752 240.565 310.205 239.837 309.914 238.99H315.149V225.43H311.459C311.506 225.394 311.554 225.36 311.602 225.329C310.882 224.846 310.314 224.151 309.99 223.337H321.361V209.765H311.219C311.342 209.662 311.468 209.566 311.602 209.476C310.938 209.03 310.404 208.407 310.069 207.672H314.621V193.78H311.386C311.457 193.725 311.529 193.675 311.602 193.625C310.898 193.152 310.339 192.478 310.011 191.687H322.115V177.922H311.392C311.462 177.87 311.531 177.82 311.602 177.774C310.896 177.299 310.337 176.625 310.009 175.83H313.162V162.086H311.372C311.447 162.029 311.524 161.973 311.602 161.92C310.9 161.45 310.346 160.78 310.015 159.993H316.855V146.573H310.982C311.173 146.387 311.38 146.218 311.602 146.069C311.005 145.667 310.513 145.121 310.176 144.481H329.173V130.272H318.451C318.315 130.336 318.164 130.372 318.005 130.372C317.843 130.372 317.693 130.336 317.557 130.272H311.52C311.547 130.253 311.575 130.235 311.602 130.216C310.869 129.724 310.295 129.014 309.971 128.18H316.958V113.971H311.901C311.066 113.503 310.4 112.766 310.023 111.879H316.983C317.092 111.415 317.506 111.068 318.005 111.068C318.501 111.068 318.918 111.415 319.024 111.879H332.182V97.2012H334.276V111.879H336.547V97.2012H338.641V111.879H344.659C344.766 111.415 345.182 111.068 345.681 111.068C346.177 111.068 346.593 111.415 346.7 111.879H349.874C349.983 111.415 350.398 111.068 350.896 111.068C351.392 111.068 351.809 111.415 351.916 111.879H361.822V97.2012H363.915ZM315.737 257.159V270.715H334.464V257.159H315.737ZM336.558 257.159V270.715H339.757V257.159H336.558ZM341.851 257.159V270.715H373.89V257.159H341.851ZM325.542 241.082V255.067H344.992V241.082H325.542ZM361.845 241.082H347.085V255.067H361.838V241.193L361.845 241.082ZM363.932 255.067H365.84V241.082H363.926C363.93 241.117 363.932 241.155 363.932 241.193V255.067ZM359.445 225.43V238.99H372.592V225.43H359.445ZM336.616 238.99H357.351V225.43H336.598C336.61 225.492 336.616 225.557 336.616 225.622V238.99ZM334.539 225.43H317.243V238.99H334.523V225.622C334.523 225.559 334.527 225.494 334.539 225.432V225.43ZM351.642 209.765V223.337H366.503V209.765H351.642ZM346.912 209.765V223.337H349.548V209.765H346.912ZM323.455 209.765V223.337H344.818V209.765H323.455ZM332.624 193.78V207.672H358.252V193.78H332.624ZM316.715 193.78V207.672H330.53V193.78H316.715ZM360.345 193.78V207.672H375.559V193.78H360.345ZM342.341 177.922V191.687H344.418V177.922H342.341ZM331.759 191.687H340.247V177.922H324.209V191.687H331.395C331.453 191.677 331.514 191.671 331.577 191.671C331.64 191.671 331.7 191.677 331.759 191.687ZM346.512 177.922V191.687H368.559V177.922H346.512ZM369.918 175.83H375.992V162.086H358.853V175.83H369.294C369.393 175.798 369.497 175.782 369.606 175.782C369.715 175.782 369.82 175.798 369.918 175.83ZM353.809 162.086V175.83H356.759V162.086H353.809ZM315.256 162.086V175.83H335.771V162.086H315.256ZM337.864 162.086V175.83H351.715V162.086H337.864ZM318.949 146.573V159.993H321.506V146.573H318.949ZM347.699 146.573V159.993H369.703V146.573H347.699ZM323.599 146.573V159.993H345.605V146.573H323.599ZM334.973 130.272H331.267V144.481H334.979C334.975 144.448 334.973 144.414 334.973 144.381V130.272ZM360.287 130.272H351.342C351.208 130.336 351.055 130.372 350.896 130.372C350.735 130.372 350.584 130.336 350.448 130.272H346.127C345.99 130.336 345.84 130.372 345.681 130.372C345.519 130.372 345.369 130.336 345.232 130.272H337.067V144.381C337.067 144.414 337.067 144.448 337.062 144.481H360.291C360.287 144.448 360.287 144.414 360.287 144.381V130.272ZM378.375 130.272H373.402C373.266 130.336 373.116 130.372 372.954 130.372C372.795 130.372 372.642 130.336 372.508 130.272H362.381V144.381C362.381 144.414 362.379 144.448 362.374 144.481H378.379C378.377 144.448 378.375 144.414 378.375 144.381V130.272ZM319.052 113.971V128.18H344.634V113.971H319.052ZM346.727 113.971V128.18H349.849V113.971H346.727ZM351.943 113.971V128.18H371.907V113.971H351.943Z" fill="#FDA425"/>
<path fill-rule="evenodd" clip-rule="evenodd" d="M200.771 210.062C199.613 209.286 198.851 207.963 198.851 206.467V197.807C198.851 195.418 200.792 193.476 203.183 193.476H268.981C271.374 193.476 273.315 195.418 273.315 197.807V206.467C273.315 207.963 272.553 209.286 271.395 210.062C272.553 210.84 273.315 212.16 273.315 213.658V222.318C273.315 223.817 272.553 225.137 271.395 225.915C272.553 226.691 273.315 228.014 273.315 229.512V238.17C273.315 239.668 272.553 240.99 271.395 241.766C272.553 242.545 273.315 243.865 273.315 245.363V254.023C273.315 255.521 272.553 256.841 271.395 257.619C272.553 258.396 273.315 259.718 273.315 261.214V269.874C273.315 271.372 272.553 272.692 271.395 273.471C272.553 274.249 273.315 275.569 273.315 277.067V285.727C273.315 288.117 271.374 290.056 268.981 290.056H203.183C200.792 290.056 198.851 288.117 198.851 285.727V277.067C198.851 275.569 199.613 274.249 200.771 273.471C199.613 272.692 198.851 271.372 198.851 269.874V261.214C198.851 259.718 199.613 258.396 200.771 257.619C199.613 256.841 198.851 255.521 198.851 254.023V245.363C198.851 243.865 199.613 242.545 200.771 241.766C199.613 240.99 198.851 239.668 198.851 238.17V229.512C198.851 228.014 199.613 226.691 200.771 225.915C199.613 225.137 198.851 223.817 198.851 222.318V213.658C198.851 212.16 199.613 210.84 200.771 210.062Z" fill="#FFCD80"/>
<path fill-rule="evenodd" clip-rule="evenodd" d="M257.852 208.283H272.915C272.58 209.007 272.05 209.622 271.395 210.062C271.537 210.158 271.673 210.263 271.805 210.376H265.593V223.923V223.925H273.005C272.68 224.739 272.113 225.432 271.395 225.915C271.443 225.949 271.493 225.982 271.541 226.018H259.142V239.475C259.142 239.536 259.138 239.594 259.127 239.651H273.053C272.741 240.507 272.167 241.237 271.428 241.743H267.607V255.291C267.607 255.349 267.601 255.408 267.592 255.464H273.068C272.766 256.316 272.207 257.044 271.483 257.557H260.074V271.343H273.057C272.749 272.198 272.18 272.927 271.445 273.435H267.094V290.056H265V273.435H251.493C251.493 273.454 251.495 273.471 251.495 273.487V290.056H249.401V273.487C249.401 273.471 249.401 273.454 249.401 273.435H239.075C238.941 273.498 238.794 273.531 238.639 273.531C238.482 273.531 238.336 273.498 238.202 273.435H224.787V290.056H222.693V273.435H219.033V290.056H216.939V273.435H200.719C199.984 272.927 199.414 272.198 199.106 271.343H213.554V257.557H200.681C199.959 257.044 199.397 256.316 199.096 255.464H204.414V241.743H200.737C199.996 241.237 199.423 240.507 199.111 239.651H211.964V226.018H200.622C200.673 225.982 200.721 225.949 200.771 225.915C200.051 225.432 199.485 224.739 199.159 223.925H203.738V210.376H200.361C200.49 210.263 200.626 210.158 200.771 210.062C200.114 209.622 199.586 209.007 199.249 208.283H208.874V193.476H210.968V208.283H213.112V193.476H215.206V208.283H234.435V193.476H236.529V208.283H255.758V193.476H257.852V208.283ZM215.647 257.557V271.343H237.592V257.557H215.647ZM239.686 257.557V271.343H253.834V257.557H239.686ZM255.928 257.557V271.343H257.98V257.557H255.928ZM206.508 241.743V255.464H223.447V241.743H206.508ZM246.081 241.743H225.541V255.464H246.137C246.102 255.358 246.081 255.243 246.081 255.123V241.743ZM265.513 241.743H248.175V255.123C248.175 255.243 248.156 255.358 248.118 255.464H265.526C265.517 255.408 265.513 255.349 265.513 255.291V241.743ZM214.058 226.018V239.651H230.147V226.018H214.058ZM232.241 226.018V239.651H234.716V226.018H232.241ZM257.048 226.018H236.809V239.651H246.805C246.906 239.617 247.015 239.601 247.128 239.601C247.241 239.601 247.35 239.617 247.452 239.651H257.065C257.054 239.594 257.048 239.536 257.048 239.475V226.018ZM205.832 210.376V223.925H224.27V210.376H205.832ZM226.363 210.376V223.925H243.034V210.376H226.363ZM245.128 210.376V223.925H247.93V210.376H245.128ZM263.499 210.376H250.023V223.925H263.499V223.923V210.376Z" fill="#FDA425"/>
<path fill-rule="evenodd" clip-rule="evenodd" d="M273.338 148.088H293.507C328.208 148.088 356.382 180.778 356.382 221.041C356.382 258.192 332.435 289.469 301.47 293.995C298.874 294.376 273.474 293.995 273.474 293.995C238.773 293.995 210.599 261.305 210.599 221.041C210.599 180.83 238.7 148.172 273.338 148.088Z" fill="#FDA425"/>
<path d="M273.472 293.995C308.196 293.995 336.346 261.333 336.346 221.041C336.346 180.75 308.196 148.087 273.472 148.087C238.748 148.087 210.599 180.75 210.599 221.041C210.599 261.333 238.748 293.995 273.472 293.995Z" fill="#FFCD80"/>
<path fill-rule="evenodd" clip-rule="evenodd" d="M273.714 177.691L271.543 177.57L271.593 174.333L275.38 174.544C276.277 174.594 276.99 175.359 276.976 176.253L276.892 181.727C280.205 182.06 283.377 182.77 286.405 183.852C290.275 185.234 293.913 187.226 297.317 189.824C297.703 190.116 297.944 190.558 297.984 191.031C298.02 191.504 297.853 191.962 297.518 192.286L290.103 199.468C289.544 200.008 288.663 200.049 288.016 199.563C284.658 197.046 280.884 195.417 276.692 194.672L276.412 212.915C292.001 217.098 299.4 225.003 299.015 236.197C298.83 242.279 296.486 247.195 292.009 250.93C287.916 254.475 282.497 256.603 275.729 257.262L275.584 266.668C275.57 267.561 274.836 268.243 273.939 268.193L270.22 267.986L270.27 264.753L272.372 264.87L272.514 255.667C272.526 254.847 273.148 254.193 273.964 254.142C280.62 253.709 285.918 251.833 289.857 248.425C293.653 245.258 295.621 241.103 295.779 235.961C296.124 225.891 288.866 219.298 274.443 215.723C273.682 215.532 273.142 214.834 273.154 214.059L273.483 192.714C273.489 192.268 273.682 191.853 274.012 191.563C274.342 191.277 274.782 191.142 275.228 191.198C280.237 191.792 284.744 193.455 288.744 196.18L293.852 191.234C291.191 189.404 288.385 187.957 285.426 186.902C282.195 185.747 278.792 185.059 275.209 184.828C274.321 184.772 273.617 184.009 273.63 183.121L273.714 177.691ZM275.93 244.172C278.295 243.59 280.03 242.683 281.087 241.374C281.747 240.529 282.234 239.562 282.55 238.479L285.661 239.514C285.227 240.978 284.56 242.284 283.653 243.452C281.92 245.595 278.926 247.09 274.591 247.766C274.113 247.84 273.617 247.695 273.24 247.366C272.868 247.037 272.654 246.561 272.661 246.074L272.837 234.633L276.075 234.813L275.93 244.172ZM258.919 197.414C259.51 195.983 260.269 194.807 261.181 193.878C261.204 193.855 261.23 193.832 261.252 193.809C263.306 191.968 265.728 190.974 268.511 190.828C268.966 190.805 269.424 190.979 269.761 191.303C270.099 191.629 270.287 192.08 270.28 192.536L270.136 201.905L266.899 201.725L267.012 194.338C265.715 194.674 264.547 195.305 263.505 196.23C262.857 196.9 262.332 197.753 261.908 198.778C261.899 198.806 261.886 198.833 261.873 198.859C261.366 199.918 261.12 201.223 261.097 202.755L257.86 202.575C257.891 200.545 258.256 198.828 258.919 197.414Z" fill="#FDA31F"/>
<path fill-rule="evenodd" clip-rule="evenodd" d="M260.17 209.492C258.603 207.584 257.819 205.283 257.86 202.576L261.098 202.756C261.069 204.613 261.569 206.198 262.647 207.504L262.685 207.551C263.527 208.65 264.896 209.557 266.767 210.34L266.899 201.725L270.136 201.905L269.97 212.706C269.963 213.207 269.721 213.668 269.318 213.953C268.919 214.236 268.397 214.314 267.914 214.159C264.176 212.961 261.62 211.362 260.17 209.492Z" fill="#FDA31F"/>
<path fill-rule="evenodd" clip-rule="evenodd" d="M276.194 227.07L276.074 234.813L272.837 234.633L272.987 224.926C272.994 224.452 273.209 224.014 273.573 223.726C273.942 223.439 274.421 223.33 274.888 223.432C279.396 224.42 282.39 226.044 283.972 228.081L284.006 228.131C285.543 230.266 286.3 232.676 286.258 235.366C286.235 236.871 286.032 238.254 285.661 239.514L282.55 238.479C282.847 237.478 283.003 236.379 283.021 235.186C283.051 233.253 282.523 231.52 281.427 229.985C280.432 228.718 278.672 227.783 276.194 227.07Z" fill="#FDA31F"/>
<path fill-rule="evenodd" clip-rule="evenodd" d="M266.547 224.654C251.56 220.473 244.531 212.786 245.039 202.025C245.269 195.534 247.432 190.57 251.428 187.088C255.086 183.903 260.334 181.955 267.213 181.341L267.3 175.715C267.314 174.821 268.049 174.136 268.941 174.186L271.594 174.334L271.544 177.571L270.512 177.513L270.429 182.943C270.416 183.766 269.79 184.423 268.97 184.471C262.219 184.881 257.084 186.541 253.606 189.57C250.221 192.521 248.473 196.768 248.275 202.292C247.819 211.93 254.721 218.302 268.528 221.867C269.28 222.061 269.816 222.756 269.804 223.524L269.46 245.896C269.453 246.352 269.251 246.774 268.913 247.063C268.57 247.352 268.117 247.476 267.662 247.409C263.616 246.803 260.198 245.706 257.411 244.142C254.958 242.898 252.769 241.402 250.84 239.651L244.558 244.528C247.52 246.818 250.812 248.794 254.421 250.459C258.634 252.355 263.071 253.46 267.738 253.782C268.626 253.845 269.326 254.604 269.312 255.489L269.17 264.692L270.271 264.753L270.221 267.987L267.5 267.836C266.607 267.786 265.894 267.023 265.908 266.131L266.051 256.876C261.564 256.405 257.28 255.246 253.183 253.401C248.605 251.291 244.528 248.718 240.936 245.683C240.559 245.365 240.337 244.892 240.336 244.404C240.33 243.915 240.55 243.46 240.927 243.166L249.878 236.219C250.51 235.724 251.437 235.8 252.027 236.397C253.953 238.342 256.218 239.967 258.809 241.278L258.878 241.313C260.942 242.476 263.401 243.333 266.25 243.897L266.547 224.654Z" fill="#FDA31F"/>
<path fill-rule="evenodd" clip-rule="evenodd" d="M270.452 162.525C295.813 162.525 316.183 188.882 316.183 221.133C316.183 253.382 295.813 279.739 270.452 279.739C269.528 279.739 268.776 280.488 268.776 281.412C268.776 282.336 269.528 283.088 270.452 283.088C297.418 283.088 319.531 255.423 319.531 221.133C319.531 186.842 297.418 159.178 270.452 159.178C269.528 159.178 268.776 159.928 268.776 160.852C268.776 161.776 269.528 162.525 270.452 162.525Z" fill="#FDA425"/>
<path fill-rule="evenodd" clip-rule="evenodd" d="M270.452 279.739C245.089 279.739 224.722 253.382 224.722 221.133C224.722 188.882 245.089 162.525 270.452 162.525C271.377 162.525 272.126 161.776 272.126 160.852C272.126 159.928 271.377 159.178 270.452 159.178C243.486 159.178 221.371 186.842 221.371 221.133C221.371 255.423 243.486 283.088 270.452 283.088C271.377 283.088 272.126 282.336 272.126 281.412C272.126 280.488 271.377 279.739 270.452 279.739Z" fill="#FDA425"/>
<path fill-rule="evenodd" clip-rule="evenodd" d="M319.502 288.009H295.511C294.588 288.009 293.836 287.258 293.836 286.335C293.836 285.41 294.588 284.661 295.511 284.661H324.328C324.523 284.661 324.709 284.695 324.883 284.755C323.141 285.938 321.346 287.023 319.502 288.009ZM346.872 259.824C346.265 260.96 345.634 262.077 344.977 263.172H321.939C321.014 263.172 320.264 262.422 320.264 261.498C320.264 260.573 321.014 259.824 321.939 259.824H346.872ZM351.418 249.605C351.007 250.737 350.572 251.852 350.117 252.953H324.328C323.403 252.953 322.653 252.204 322.653 251.279C322.653 250.356 323.403 249.605 324.328 249.605H351.418ZM356.21 215.629C356.281 216.74 356.33 217.855 356.357 218.976H333.352C332.427 218.976 331.677 218.227 331.677 217.302C331.677 216.38 332.427 215.629 333.352 215.629H356.21ZM352.55 195.924C352.898 197.028 353.227 198.146 353.53 199.271H328.467C327.544 199.271 326.792 198.522 326.792 197.597C326.792 196.675 327.544 195.924 328.467 195.924H352.55ZM349.112 186.979C349.613 188.08 350.092 189.195 350.544 190.327H327.565C326.642 190.327 325.89 189.578 325.89 188.653C325.89 187.73 326.642 186.979 327.565 186.979H349.112ZM326.828 159.179C328.273 160.229 329.678 161.344 331.043 162.527H304.535C303.612 162.527 302.86 161.775 302.86 160.853C302.86 159.928 303.612 159.179 304.535 159.179H326.828Z" fill="#FFCD80"/>
<path fill-rule="evenodd" clip-rule="evenodd" d="M217.863 27.2207C219.345 22.1129 223.567 7.51269 226.614 0.988507L244.155 10.499C244.155 10.499 236.599 37.7846 234.97 45.6093L214.569 40.7601C215.188 36.4967 216.372 32.3594 217.863 27.2207Z" fill="#82B5B2"/>
<path d="M227.162 32.8168C230.52 32.8168 233.243 29.9695 233.243 26.4572C233.243 22.9449 230.52 20.0977 227.162 20.0977C223.803 20.0977 221.081 22.9449 221.081 26.4572C221.081 29.9695 223.803 32.8168 227.162 32.8168Z" fill="#A8CFCC" fill-opacity="0.63"/>
<path fill-rule="evenodd" clip-rule="evenodd" d="M222.831 34.2772C223.822 31.5186 229.347 17.2097 232.756 12.9094L248.633 21.8263C248.633 21.8263 240.076 44.5476 238.124 51.09L219.318 45.9771C220.13 42.3991 221.282 38.5917 222.831 34.2772Z" fill="#A8CFCC"/>
<path d="M233.82 39.3241C237.178 39.3241 239.901 36.4768 239.901 32.9645C239.901 29.4522 237.178 26.605 233.82 26.605C230.461 26.605 227.739 29.4522 227.739 32.9645C227.739 36.4768 230.461 39.3241 233.82 39.3241Z" fill="#82B5B2"/>
<path d="M273.099 35.4764C280.506 35.4764 286.511 29.4758 286.511 22.0736C286.511 14.6715 280.506 8.6709 273.099 8.6709C265.691 8.6709 259.686 14.6715 259.686 22.0736C259.686 29.4758 265.691 35.4764 273.099 35.4764Z" fill="#E86135"/>
<path fill-rule="evenodd" clip-rule="evenodd" d="M264.177 12.0698C266.55 9.95643 269.676 8.67114 273.099 8.67114C280.503 8.67114 286.512 14.6768 286.512 22.0739C286.512 24.6118 285.804 26.9861 284.577 29.0096C274.617 24.5381 276.076 13.7501 276.076 13.7501C270.601 15.5376 266.512 13.7273 264.177 12.0698Z" fill="black"/>
<path fill-rule="evenodd" clip-rule="evenodd" d="M215.624 192.419C215.624 192.419 211.703 184.837 215.624 179.156L208.662 166.933C208.662 166.933 205.279 164.768 201.437 162.307C192.75 156.744 187.766 146.912 188.418 136.624C188.468 135.84 188.558 135.121 188.694 134.492C184.699 130.726 181.399 122.272 182.614 114.183C182.614 114.183 182.614 114.183 182.614 114.183C184.303 102.916 193.669 94.3792 205.051 93.7313C223.367 92.6931 254.801 91.9836 274.127 97.5216L269.78 86.7083C269.78 86.7083 238.855 97.7587 231.022 72.3825C213.269 79.546 193.499 84.7826 173.951 87.6162C165.779 88.8046 157.716 84.8454 153.665 77.654C153.656 77.659 153.656 77.659 153.656 77.659C150.229 71.5763 151.324 63.951 156.324 59.076C161.351 54.2292 169.925 47.9595 184.567 40.7462C184.567 40.7462 199.234 32.9959 207.823 28.4576C211.661 26.4301 216.211 26.2536 220.193 27.9778C228.654 31.6397 242.632 37.6912 242.632 37.6912L244.265 33.5721C253.972 35.1874 263.509 38.1258 272.86 41.7622C282.791 45.6364 290.486 53.7172 293.863 63.8194C302.18 88.6966 317.883 136.461 319.944 148.427H325.831C329.14 148.427 332.006 150.72 332.728 153.946C333.292 156.467 333.836 158.901 333.836 158.901C333.836 158.901 337.586 163.092 338.683 166.933C339.129 168.498 336.631 170.323 333.836 167.391C333.009 166.523 324.977 160.19 321.369 159.794C318.61 159.491 316.168 159.175 313.892 158.897C306.905 158.041 300.704 154.011 297.084 147.975C294.663 143.941 292.437 140.229 292.437 140.229C292.437 140.229 284.891 152.323 264.177 150.14L267.396 191.944C267.396 191.944 263.262 190.967 261.88 184.217C261.88 184.217 238.537 181.11 225.241 175.484C225.241 175.484 219.996 180.688 215.624 192.419Z" fill="url(#paint2_linear_4_643)"/>
<path fill-rule="evenodd" clip-rule="evenodd" d="M319.835 147.828C319.874 148.038 319.91 148.236 319.944 148.427H322.73C324.079 149.372 326.129 150.858 328.35 152.628L329.064 151.825C329.372 151.479 329.902 151.448 330.247 151.756C330.593 152.061 330.624 152.59 330.316 152.936L329.653 153.683C330.913 154.722 332.194 155.836 333.407 156.978L333.836 158.901L320.191 148.711C319.891 148.515 319.759 148.157 319.835 147.828Z" fill="#D7441E"/>
<path fill-rule="evenodd" clip-rule="evenodd" d="M240.201 180.142L251.799 147.238C251.991 146.692 252.59 146.406 253.135 146.598C253.679 146.791 253.966 147.387 253.775 147.933L242.251 180.623C241.571 180.468 240.888 180.307 240.201 180.142ZM208.662 166.933C208.662 166.933 213.151 169.345 217.015 171.341C221.91 173.875 227.038 176.244 225.241 175.484C225.241 175.484 224.741 175.982 223.92 177.014C219.517 175.043 214.448 172.386 210.561 170.268L208.662 166.933ZM187.096 132.686C190.457 116.578 203.02 107.427 217.634 102.336C238.292 95.1402 263.026 96.1154 270.762 96.6471C271.899 96.9145 273.551 97.2685 274.615 97.5723C274.676 97.7227 275.143 98.0114 275.126 98.1832C275.065 98.7576 275.863 99.1781 275.287 99.1189C275.287 99.1189 243.164 97.0906 218.323 104.312C202.9 108.795 192.239 119.963 188.694 134.492C188.145 133.975 187.609 133.368 187.096 132.686Z" fill="#D7441E"/>
<path fill-rule="evenodd" clip-rule="evenodd" d="M264.364 152.21C260.505 151.617 255.61 150.013 250.446 147.914C235.316 141.771 217.802 131.49 217.802 131.49C217.304 131.198 217.138 130.556 217.429 130.058C217.722 129.561 218.365 129.394 218.863 129.686C218.863 129.686 236.229 139.884 251.233 145.977C256.648 148.176 264.646 150.188 264.177 150.14L264.364 152.21Z" fill="#8A2208"/>
<path fill-rule="evenodd" clip-rule="evenodd" d="M272.934 94.5491L269.78 86.7083C269.78 86.7083 238.855 97.7587 231.022 72.3825C213.269 79.546 193.499 84.7826 173.951 87.6162C165.779 88.8046 157.716 84.8453 153.665 77.654C153.656 77.659 153.656 77.659 153.656 77.659C150.229 71.5763 151.324 63.951 156.324 59.076C161.351 54.2292 169.925 47.9595 184.567 40.7462C184.567 40.7462 199.234 32.9959 207.823 28.4576C211.661 26.4301 216.211 26.2536 220.193 27.9778C228.654 31.6397 242.632 37.6912 242.632 37.6912L244.265 33.5721C253.972 35.1874 263.51 38.1258 272.86 41.7622C282.791 45.6364 290.486 53.7172 293.863 63.8194C298.859 78.7606 306.518 101.958 312.285 120.696L288.181 128.041C282.952 117.084 277.651 106.217 273.017 94.5629L272.934 94.5491Z" fill="#D7441E"/>
<path fill-rule="evenodd" clip-rule="evenodd" d="M265.295 87.9366C264.529 84.111 264.349 80.0959 264.42 76.0001C264.422 75.7748 264.586 75.5833 264.808 75.5419C265.03 75.5003 265.249 75.6199 265.335 75.8283C267.379 80.8061 272.383 92.9886 272.383 92.9886H272.305L269.78 86.7084C269.78 86.7084 268.045 87.3281 265.295 87.9366ZM199.027 63.1836L173.296 77.6679C172.792 77.9512 172.614 78.5897 172.896 79.0927C173.181 79.5957 173.82 79.7742 174.324 79.4907L200.055 65.0066C200.559 64.7234 200.737 64.0848 200.453 63.5818C200.17 63.0786 199.531 62.9003 199.027 63.1836ZM225.603 74.4859C226.577 67.449 228.893 62.5145 230.505 59.7925C230.608 59.6422 230.806 59.5906 230.972 59.6711C231.135 59.7515 231.217 59.9398 231.16 60.1141C229.496 66.0936 230.926 72.0022 231.018 72.365L231.022 72.3826C229.236 73.1033 227.429 73.8045 225.603 74.4859Z" fill="#8A2208"/>
<path fill-rule="evenodd" clip-rule="evenodd" d="M185.691 40.1522L207.823 28.4576C211.661 26.4301 216.211 26.2536 220.193 27.9778L242.023 37.4278C242.169 37.5253 242.303 37.6132 242.423 37.6912C246.062 40.0741 243.187 42.43 242.169 42.0938C244.655 43.2741 244.571 45.2354 243.985 46.0852C243.02 47.4873 239.565 46.9757 239.565 46.9757C240.526 47.3182 241.407 49.1923 240.662 50.5824C239.464 52.8172 236.187 51.4595 236.187 51.4595C236.782 54.5759 233.558 54.5862 229.623 53.7537C226.577 53.109 225.18 52.4269 222.588 51.7808C218.399 62.9448 205.888 61.6554 205.888 61.6554L197.645 66.3253L185.691 40.1522Z" fill="url(#paint3_linear_4_643)"/>
<path fill-rule="evenodd" clip-rule="evenodd" d="M236.2 51.5243L222.19 46.09C221.759 45.9228 221.546 45.4374 221.713 45.0068C221.881 44.5763 222.366 44.3624 222.798 44.5296L240.134 51.255C238.706 52.5029 236.187 51.4594 236.187 51.4594C236.192 51.4814 236.196 51.503 236.2 51.5243ZM239.776 47.0767L223.849 40.8978C223.417 40.7306 223.204 40.2454 223.371 39.8148C223.539 39.3843 224.025 39.1704 224.456 39.3374L242.712 46.4198C242.879 46.4846 243.013 46.5974 243.105 46.7365C241.723 47.2954 239.565 46.9757 239.565 46.9757C239.636 47.0012 239.707 47.0351 239.776 47.0767ZM242.339 42.1243L225.758 35.692C225.327 35.5248 225.111 35.0394 225.279 34.6088C225.446 34.1782 225.932 33.9644 226.363 34.1316L244.01 40.9773C243.643 41.6987 242.854 42.1549 242.339 42.1243Z" fill="#D7441E"/>
<path fill-rule="evenodd" clip-rule="evenodd" d="M192.134 282.967C190.949 282.17 190.166 280.816 190.166 279.283V270.409C190.166 267.961 192.155 265.974 194.607 265.974H262.029C264.479 265.974 266.468 267.961 266.468 270.409V279.283C266.468 280.816 265.687 282.17 264.5 282.967C265.687 283.764 266.468 285.118 266.468 286.652V295.525C266.468 297.975 264.479 299.963 262.029 299.963H194.607C192.155 299.963 190.166 297.975 190.166 295.525V286.652C190.166 285.118 190.949 283.764 192.134 282.967Z" fill="#FFDBA3"/>
<path fill-rule="evenodd" clip-rule="evenodd" d="M246.317 281.17H266.047C265.704 281.9 265.165 282.521 264.5 282.967C264.636 283.059 264.765 283.158 264.891 283.262H258.499V299.963H256.405V283.262H238.903V299.963H236.809V283.262H234.137V299.963H232.044V283.262H205.009V299.963H202.915V283.262H191.744C191.868 283.158 191.998 283.059 192.134 282.967C191.47 282.521 190.932 281.9 190.589 281.17H215.096V265.974H217.19V281.17H219.862V265.974H221.956V281.17H244.223V265.974H246.317V281.17Z" fill="#FDA425"/>
</g>
<defs>
<linearGradient id="paint0_linear_4_643" x1="70.87" y1="211.936" x2="70.4458" y2="331.528" gradientUnits="userSpaceOnUse">
<stop stop-color="#A8CFCC"/>
<stop offset="1" stop-color="#59A09B"/>
</linearGradient>
<linearGradient id="paint1_linear_4_643" x1="84.5882" y1="118.217" x2="90.1103" y2="224.389" gradientUnits="userSpaceOnUse">
<stop stop-color="#82B5B2"/>
<stop offset="0.45" stop-color="#A7C6C1"/>
<stop offset="1" stop-color="#FFF0E6"/>
</linearGradient>
<linearGradient id="paint2_linear_4_643" x1="280.708" y1="139.949" x2="162.674" y2="35.2809" gradientUnits="userSpaceOnUse">
<stop stop-color="#E86135"/>
<stop offset="0.48" stop-color="#EE734F"/>
<stop offset="1" stop-color="#FFA396"/>
</linearGradient>
<linearGradient id="paint3_linear_4_643" x1="215.017" y1="50.0317" x2="223.478" y2="-5.56348" gradientUnits="userSpaceOnUse">
<stop stop-color="#E86135"/>
<stop offset="1" stop-color="#FFA396"/>
</linearGradient>
<clipPath id="clip0_4_643">
<rect width="384.401" height="300" fill="white"/>
</clipPath>
</defs>
</svg>
