<svg width="544" height="414" viewBox="0 0 544 414" fill="none" xmlns="http://www.w3.org/2000/svg">
<path d="M543.268 17.2107H350.945V276.747H543.268V17.2107Z" fill="#FFD593"/>
<path d="M489.217 103.674C509.389 103.674 525.742 87.322 525.742 67.1506C525.742 46.9791 509.389 30.627 489.217 30.627C469.045 30.627 452.692 46.9791 452.692 67.1506C452.692 87.322 469.045 103.674 489.217 103.674Z" fill="white"/>
<path d="M489.36 74.262C496.385 74.262 502.08 68.5672 502.08 61.5424C502.08 54.5175 496.385 48.8228 489.36 48.8228C482.335 48.8228 476.64 54.5175 476.64 61.5424C476.64 68.5672 482.335 74.262 489.36 74.262Z" fill="#B5D6D4"/>
<path fill-rule="evenodd" clip-rule="evenodd" d="M457.972 86.0637C467.738 79.9389 489.5 71.2117 518.855 88.4889C512.22 97.6838 501.414 103.674 489.217 103.674C475.98 103.674 464.375 96.6162 457.972 86.0637Z" fill="#B5D6D4"/>
<path fill-rule="evenodd" clip-rule="evenodd" d="M490.036 48.8407C496.361 49.1733 501.466 54.1332 502.029 60.3933C491.2 58.4607 490.064 51.5019 490.036 48.8407ZM476.7 60.3011C477.323 53.862 482.759 48.8229 489.358 48.8229C489.554 48.8229 489.747 48.8271 489.94 48.8358C488.491 56.679 480.683 59.4095 476.7 60.3011Z" fill="black"/>
<path fill-rule="evenodd" clip-rule="evenodd" d="M431.533 78.7475H366.278V88.1729H431.533V78.7475ZM426.077 58.8889H366.278V68.3143H426.077V58.8889ZM438.986 39.1099H366.278V48.5355H438.986V39.1099Z" fill="#FDA527"/>
<path fill-rule="evenodd" clip-rule="evenodd" d="M488.847 175.736H392.258V183.562H488.847V175.736ZM471.572 160.087H392.258V167.913H471.572V160.087ZM488.847 143.804H392.258V151.63H488.847V143.804Z" fill="#FDA527"/>
<path d="M488.847 193.55H392.258V201.376H488.847V193.55Z" fill="#FDA527"/>
<path fill-rule="evenodd" clip-rule="evenodd" d="M493 258.2H396.411V266.025H493V258.2ZM471.529 241.917H396.411V249.742H471.529V241.917Z" fill="#FDA527"/>
<path d="M517.094 114.269H366.013V128.349H517.094V114.269Z" fill="#FDA527"/>
<path d="M520.413 218.922H369.332V233.002H520.413V218.922Z" fill="#FDA527"/>
<path d="M366.216 9.20886H173.893V268.745H366.216V9.20886Z" fill="#B5D6D4"/>
<path d="M312.165 95.6723C332.337 95.6723 348.69 79.3202 348.69 59.1487C348.69 38.9773 332.337 22.6251 312.165 22.6251C291.993 22.6251 275.64 38.9773 275.64 59.1487C275.64 79.3202 291.993 95.6723 312.165 95.6723Z" fill="white"/>
<path fill-rule="evenodd" clip-rule="evenodd" d="M282.236 80.0808C291.234 73.6243 316.138 59.6756 342.336 79.7283C335.758 89.3507 324.693 95.6722 312.164 95.6722C299.792 95.6722 288.847 89.5065 282.236 80.0808Z" fill="#EC7954"/>
<path d="M313.249 62.3519C320.382 62.3519 326.164 56.5702 326.164 49.4382C326.164 42.3062 320.382 36.5245 313.249 36.5245C306.117 36.5245 300.335 42.3062 300.335 49.4382C300.335 56.5702 306.117 62.3519 313.249 62.3519Z" fill="#EC7954"/>
<path d="M335.405 61.1565C340.593 61.1565 344.799 56.9508 344.799 51.7629C344.799 46.5749 340.593 42.3693 335.405 42.3693C330.217 42.3693 326.011 46.5749 326.011 51.7629C326.011 56.9508 330.217 61.1565 335.405 61.1565Z" fill="black"/>
<path fill-rule="evenodd" clip-rule="evenodd" d="M300.342 49.9043C300.339 49.7501 300.336 49.5946 300.336 49.4385C300.336 42.3109 306.121 36.5245 313.251 36.5245C320.377 36.5245 326.162 42.3109 326.162 49.4385C326.162 49.8609 326.144 50.2789 326.102 50.6911C316.435 49.4026 313.772 40.896 313.772 40.896C310.623 48.4418 304.349 49.8462 300.342 49.9043Z" fill="black"/>
<path fill-rule="evenodd" clip-rule="evenodd" d="M251.342 70.7457H189.226V80.1711H251.342V70.7457ZM261.934 50.8871H189.226V60.3125H261.934V50.8871ZM246.693 31.108H189.226V40.5337H246.693V31.108Z" fill="#95C0BE"/>
<path fill-rule="evenodd" clip-rule="evenodd" d="M312.397 164.423H215.807V172.249H312.397V164.423ZM312.397 148.774H215.807V156.6H312.397V148.774ZM312.397 132.491H215.807V140.317H312.397V132.491Z" fill="#95C0BE"/>
<path fill-rule="evenodd" clip-rule="evenodd" d="M312.397 241.988H215.807V249.813H312.397V241.988ZM312.397 226.34H215.807V234.166H312.397V226.34ZM312.397 210.057H215.807V217.883H312.397V210.057Z" fill="#95C0BE"/>
<path d="M340.042 106.267H188.961V120.347H340.042V106.267Z" fill="#95C0BE"/>
<path d="M340.042 185.408H188.961V199.488H340.042V185.408Z" fill="#95C0BE"/>
<path d="M193.127 0.932251H0.804626V260.469H193.127V0.932251Z" fill="#FFF3E4"/>
<path d="M139.077 87.3957C159.249 87.3957 175.602 71.0436 175.602 50.8721C175.602 30.7007 159.249 14.3485 139.077 14.3485C118.904 14.3485 102.552 30.7007 102.552 50.8721C102.552 71.0436 118.904 87.3957 139.077 87.3957Z" fill="white"/>
<path fill-rule="evenodd" clip-rule="evenodd" d="M107.33 68.9356C114.029 60.506 125.764 54.9119 139.109 54.9119C152.429 54.9119 164.144 60.485 170.848 68.8889C164.566 79.9368 152.686 87.3958 139.077 87.3958C125.488 87.3958 113.622 79.9588 107.33 68.9356Z" fill="#FDA527"/>
<path fill-rule="evenodd" clip-rule="evenodd" d="M134.349 55.152C135.908 54.9935 137.497 54.9119 139.108 54.9119C141.332 54.9119 143.51 55.067 145.63 55.3653C145.268 57.4739 143.851 58.9687 142.228 59.6416L146.426 86.6546C144.05 87.1406 141.593 87.3958 139.077 87.3958C136.901 87.3958 134.769 87.205 132.697 86.8392L138.193 59.6621C135.504 58.7217 134.628 56.372 134.349 55.152Z" fill="black"/>
<path d="M138.916 50.6429C145.949 50.6429 151.651 44.9413 151.651 37.908C151.651 30.8746 145.949 25.173 138.916 25.173C131.882 25.173 126.18 30.8746 126.18 37.908C126.18 44.9413 131.882 50.6429 138.916 50.6429Z" fill="#FDA527"/>
<path fill-rule="evenodd" clip-rule="evenodd" d="M126.18 37.8675C126.202 30.8577 131.9 25.1729 138.916 25.1729C145.945 25.1729 151.651 30.8791 151.651 37.9078C151.651 38.4589 151.616 39.0019 151.548 39.5337C143.081 38.6147 139.511 29.6895 139.511 29.6895C136.458 36.1831 129.75 37.5918 126.18 37.8675Z" fill="black"/>
<path fill-rule="evenodd" clip-rule="evenodd" d="M62.6514 62.469H16.1379V71.8943H62.6514V62.469ZM88.8459 42.6104H16.1379V52.0357H88.8459V42.6104ZM88.8459 22.8313H16.1379V32.257H88.8459V22.8313Z" fill="#FFB1A6"/>
<path fill-rule="evenodd" clip-rule="evenodd" d="M139.308 156.147H42.719V163.973H139.308V156.147ZM139.308 140.498H42.719V148.324H139.308V140.498ZM139.308 124.215H42.719V132.041H139.308V124.215Z" fill="#FFB1A6"/>
<path fill-rule="evenodd" clip-rule="evenodd" d="M139.308 233.711H42.719V241.536H139.308V233.711ZM139.308 218.064H42.719V225.889H139.308V218.064ZM139.308 201.781H42.719V209.606H139.308V201.781Z" fill="#FFB1A6"/>
<path d="M166.954 97.9907H15.8728V112.07H166.954V97.9907Z" fill="#FFB1A6"/>
<path d="M166.954 177.132H15.8728V191.211H166.954V177.132Z" fill="#FFB1A6"/>
<path d="M213.907 121.319C231.962 118.621 243.214 93.7838 239.038 65.8442C234.861 37.9046 216.839 17.4426 198.783 20.141C180.727 22.8395 169.475 47.6765 173.652 75.6161C177.828 103.556 195.851 124.018 213.907 121.319Z" fill="white"/>
<path fill-rule="evenodd" clip-rule="evenodd" d="M177.971 92.0406C185.531 83.9756 196.273 78.1728 208.86 76.2921C219.834 74.6522 230.579 76.2387 239.851 80.2691C239.013 101.866 228.756 119.1 213.904 121.319C199.643 123.451 185.381 111.101 177.971 92.0406Z" fill="#FDA527"/>
<path fill-rule="evenodd" clip-rule="evenodd" d="M209.11 121.501L208.95 83.4375C205.096 82.5962 203.273 79.3272 202.565 77.5944C204.605 77.0508 206.702 76.614 208.86 76.2919C211.828 75.8481 214.783 75.6405 217.697 75.6541C217.8 78.8173 216.32 81.291 214.335 82.6017L225.559 115.851C222.139 118.766 218.216 120.675 213.904 121.319C212.304 121.559 210.701 121.616 209.11 121.501Z" fill="black"/>
<path d="M207.423 70.074C216.823 68.6698 222.865 59.174 220.918 48.8646C218.972 38.5552 209.773 31.3362 200.373 32.7405C190.973 34.1448 184.931 43.6406 186.878 53.95C188.824 64.2594 198.023 71.4783 207.423 70.074Z" fill="#FDA527"/>
<path fill-rule="evenodd" clip-rule="evenodd" d="M186.866 53.8909C184.955 43.6116 190.997 34.1407 200.373 32.7394C209.767 31.3356 218.973 38.56 220.917 48.8627C221.07 49.6705 221.173 50.4735 221.229 51.2666C209.66 51.6106 202.418 39.2412 202.418 39.2412C200.135 49.3693 191.56 52.7738 186.866 53.8909Z" fill="black"/>
<path fill-rule="evenodd" clip-rule="evenodd" d="M212.046 122.934L219.978 177.709C220.253 179.616 222.027 180.94 223.932 180.664C225.84 180.388 227.163 178.616 226.886 176.709L218.956 121.933C218.678 120.026 216.908 118.702 215 118.978C213.095 119.254 211.771 121.027 212.046 122.934Z" fill="#DD6140"/>
<path fill-rule="evenodd" clip-rule="evenodd" d="M213.712 134.43L212.046 122.933C211.771 121.027 213.094 119.254 215.002 118.978C216.909 118.702 218.681 120.026 218.955 121.933L220.212 130.611C217.786 132.735 215.61 133.889 213.712 134.43Z" fill="black"/>
<path fill-rule="evenodd" clip-rule="evenodd" d="M213.312 118.319C207.015 119.178 200.803 116.687 195.349 111.972C186.471 104.294 179.65 90.844 177.482 74.9677C175.314 59.0913 178.281 44.3056 184.776 34.5291C188.766 28.5249 194.083 24.4595 200.38 23.6C202.289 23.3393 203.629 21.5778 203.368 19.6689C203.108 17.76 201.345 16.4218 199.435 16.6825C191.242 17.8009 184.151 22.8517 178.961 30.665C171.685 41.6143 168.137 58.1317 170.564 75.912C172.992 93.6927 180.838 108.655 190.783 117.253C197.877 123.389 206.063 126.355 214.256 125.236C216.166 124.976 217.505 123.214 217.245 121.305C216.984 119.396 215.221 118.058 213.312 118.319Z" fill="#DD6140"/>
<path fill-rule="evenodd" clip-rule="evenodd" d="M200.38 23.5998C206.68 22.7398 212.891 25.2314 218.346 29.9463C227.224 37.6241 234.045 51.0738 236.212 66.9502C238.38 82.8265 235.414 97.6126 228.919 107.389C224.928 113.393 219.612 117.459 213.312 118.319C211.402 118.579 210.066 120.34 210.326 122.249C210.587 124.158 212.347 125.497 214.256 125.236C222.453 124.117 229.541 119.067 234.733 111.253C242.008 100.304 245.556 83.7868 243.128 66.0061C240.7 48.2257 232.855 33.2638 222.911 24.6652C215.814 18.5291 207.632 15.5634 199.435 16.6823C197.526 16.9429 196.189 18.7043 196.45 20.6132C196.71 22.5221 198.47 23.8604 200.38 23.5998Z" fill="#DD6140"/>
<path fill-rule="evenodd" clip-rule="evenodd" d="M253.18 270.363C253.18 270.363 197.178 376.889 185.002 403.464C185.002 403.464 171.385 404.896 165.205 413.601H259.07L281.73 374.132C281.73 374.132 298.529 396.269 313.677 403.464C313.677 403.464 304.911 408.632 303.808 413.601H390.051L328.493 317.545C328.493 317.545 372.619 234.802 328.493 210.781C316.06 204.014 285.512 205.321 253.18 270.363Z" fill="url(#paint0_linear_4_73)"/>
<path fill-rule="evenodd" clip-rule="evenodd" d="M275.791 233.943L259.601 270.757C247.557 298.147 250.645 329.833 267.752 354.384L267.839 354.507L334.715 327.254L336.035 329.317L269.252 356.535C276.605 367.063 283.411 376.467 286.952 380.459C287.015 380.529 287.07 380.604 287.118 380.682C283.791 376.847 281.73 374.132 281.73 374.132L280.175 376.837C276.146 371.546 270.81 364.056 265.278 356.104C260.33 349.002 256.515 341.322 253.857 333.322L221.658 330.806L222.197 329.766L222.863 328.483L253.074 330.845C247.09 310.892 248.22 289.156 256.844 269.546L267.529 245.245C270.319 241.057 273.076 237.303 275.791 233.943ZM329.478 319.085L329.466 319.112C329.466 319.112 324.199 310.772 321.119 305.896C320.809 305.408 320.851 304.779 321.219 304.333C321.586 303.887 322.198 303.73 322.734 303.941L333.073 307.982C330.421 313.926 328.493 317.545 328.493 317.545L329.478 319.085Z" fill="#F49387"/>
<path fill-rule="evenodd" clip-rule="evenodd" d="M411.381 59.725C414.877 56.6754 419.873 51.0764 420.864 48.1594C422.307 43.9178 419.282 43.3396 417.658 44.6075C410.899 49.8853 401.652 53.9651 401.652 53.9651C384.262 61.5338 341.347 108.128 341.347 108.128C316.126 132.767 276.249 134.487 265.187 134.467C261.4 134.45 257.654 135.283 254.231 136.904C242.488 142.491 235.383 154.208 235.383 154.208C235.383 154.208 230.902 149.407 226.979 147.225C225.343 146.321 223.309 146.605 221.983 147.922C221.983 147.922 221.983 147.922 221.983 147.922C218.202 147.218 214.462 149.331 213.115 152.933C212.814 153.745 212.564 154.489 212.44 155.059C212.44 155.059 208.927 156.467 208.746 160.271C208.746 160.271 204.606 161.99 204.588 166.034C204.588 166.034 198.438 172.365 204.588 178.547C204.588 178.547 208.779 181.011 209.795 175.616C209.795 175.616 211.301 224.575 212.04 248.569C212.296 256.81 216.029 264.556 222.321 269.887C230.071 276.455 241.214 277.154 249.726 271.607C250.296 271.236 250.844 270.881 251.365 270.54C255.144 268.079 258.389 264.879 260.902 261.13C265.064 254.917 270.391 244.694 270.897 232.473V207.072C270.897 207.072 290.568 214.927 304.48 184.949C304.48 184.949 313.797 186.518 326.435 183.462C333.995 181.634 342.745 178.151 351.403 171.686C357.453 167.178 362.669 161.644 366.809 155.334C374.903 143.011 395.767 111.205 401.652 102.055C401.652 102.055 408.823 91.5439 414.979 86.2468C414.979 86.2468 420.991 92.0386 425.926 79.8307C425.926 79.8307 428.298 74.0729 421.786 71.4322C421.786 71.4322 422.265 64.9992 416.088 64.9124C416.703 60.518 414.542 59.5225 411.381 59.725Z" fill="#FFCCC5"/>
<path fill-rule="evenodd" clip-rule="evenodd" d="M362.356 86.4607C368.608 90.165 380.655 98.5753 393.618 114.418C384.916 127.747 372.598 146.522 366.809 155.334C362.669 161.644 357.453 167.178 351.403 171.685C342.745 178.151 333.995 181.634 326.435 183.462C313.797 186.518 304.48 184.949 304.48 184.949C290.568 214.927 270.897 207.072 270.897 207.072V232.473C270.391 244.694 265.064 254.917 260.902 261.13C258.389 264.879 255.144 268.079 251.366 270.54C250.844 270.881 250.296 271.236 249.726 271.607C241.214 277.154 230.071 276.455 222.321 269.887C216.029 264.556 212.296 256.81 212.04 248.569L210.524 199.325H231.077C230.695 194.11 231.014 166.96 233.165 160.024C234.006 157.309 234.847 155.304 235.763 153.615C237.378 151.167 244.067 141.739 254.231 136.904C257.654 135.283 261.4 134.45 265.187 134.467C276.249 134.487 316.126 132.767 341.347 108.128C341.347 108.128 350.655 98.0233 362.356 86.4607Z" fill="#F49387"/>
<path fill-rule="evenodd" clip-rule="evenodd" d="M231.023 198.319H231.098V246.137C231.098 246.49 230.824 246.779 230.472 246.794C230.122 246.809 229.821 246.547 229.791 246.197L225.572 199.325H231.077C231.056 199.049 231.038 198.712 231.023 198.319ZM270.897 208.503L269.138 170.662C269.129 170.43 269.288 170.226 269.517 170.183C269.743 170.141 269.969 170.273 270.042 170.493C271.85 176.383 275.559 189.841 277.952 207.97C273.706 208.193 270.897 207.072 270.897 207.072V208.503ZM303.905 186.16C305.212 182.761 309.681 168.736 301.343 153.543C301.157 153.206 301.25 152.783 301.56 152.555C301.871 152.327 302.302 152.366 302.57 152.645C306.547 156.856 312.86 166.097 317.425 185.01C309.612 185.814 304.48 184.949 304.48 184.949C304.29 185.36 304.098 185.764 303.905 186.16Z" fill="#B44335"/>
<path fill-rule="evenodd" clip-rule="evenodd" d="M210.09 174.306C209.9 175.454 209.508 176.726 209.508 176.726L205.914 174.8C205.323 174.495 205.091 173.768 205.395 173.176C205.703 172.585 206.429 172.353 207.019 172.658L210.09 174.306ZM205.516 162.973C205.938 162.874 206.405 162.819 206.917 162.83C209.213 162.883 212.666 164.366 216.785 170.712C217.15 171.27 216.99 172.017 216.433 172.379C215.875 172.741 215.128 172.583 214.764 172.025C211.368 166.791 208.755 165.284 206.86 165.24C205.392 165.206 204.57 166.153 204.57 166.153L204.588 166.034C204.594 164.804 204.98 163.79 205.516 162.973ZM209.563 157.565C210.024 157.506 210.548 157.497 211.136 157.569C213.296 157.834 216.553 159.287 220.685 164.403C221.103 164.921 221.022 165.68 220.504 166.098C219.986 166.516 219.226 166.435 218.81 165.918C212.118 157.631 208.746 160.271 208.746 160.271C208.797 159.18 209.123 158.286 209.563 157.565ZM213.368 152.331C213.872 152.267 214.441 152.243 215.071 152.289C217.397 152.46 220.663 153.601 224.267 157.729C224.704 158.23 224.653 158.992 224.153 159.429C223.653 159.867 222.89 159.815 222.453 159.314C217.488 153.63 213.495 154.628 212.443 155.034C212.573 154.468 212.817 153.733 213.115 152.933C213.191 152.728 213.278 152.527 213.368 152.331ZM224.316 146.748C225.964 147.828 228.23 149.713 230.288 152.801C230.655 153.355 230.505 154.104 229.953 154.473C229.399 154.842 228.649 154.692 228.281 154.138C225.388 149.795 221.754 147.879 221.983 147.922C222.634 147.276 223.454 146.879 224.316 146.748ZM414.979 86.2469C414.307 86.8254 420.732 79.6436 420.732 79.6436C421.991 78.5993 423.413 80.0802 422.506 81.2752L416.908 87.3632C415.724 86.9658 414.979 86.2469 414.979 86.2469ZM421.554 69.1371C421.865 70.3891 421.786 71.4322 421.786 71.4322C421.925 71.488 419.424 71.8704 418.095 72.5715C415.609 73.8831 413.572 75.8977 413.572 75.8977C413.099 76.3653 412.334 76.3608 411.867 75.8875C411.4 75.4144 411.406 74.6506 411.879 74.1829C411.879 74.1829 414.172 71.9161 416.971 70.4397C418.439 69.6647 420.042 69.1326 421.554 69.1371ZM416.091 62.3874C416.224 63.0615 416.23 63.8871 416.091 64.8904C414.6 65.3569 411.719 66.6115 408.046 69.923C407.552 70.3686 406.789 70.3291 406.343 69.835C405.897 69.3408 405.937 68.5782 406.431 68.1329C410.969 64.0419 414.497 62.7746 416.091 62.3874ZM414.353 56.8831C413.325 57.9437 412.304 58.9226 411.381 59.725C411.523 59.716 405.5 61.9945 402.315 64.0504C401.754 64.411 401.01 64.2502 400.648 63.6912C400.287 63.1323 400.446 62.3859 401.007 62.025C405.572 59.0796 410.372 57.1202 414.353 56.8831Z" fill="#F49387"/>
<path d="M265.71 121.965C275.323 121.965 283.117 114.172 283.117 104.559C283.117 94.9458 275.323 87.153 265.71 87.153C256.096 87.153 248.303 94.9458 248.303 104.559C248.303 114.172 256.096 121.965 265.71 121.965Z" fill="#FFCCC5"/>
<path fill-rule="evenodd" clip-rule="evenodd" d="M269.566 87.5825C277.322 89.3401 283.116 96.2778 283.116 104.559C283.116 114.165 275.315 121.965 265.709 121.965C265.428 121.965 265.145 121.958 264.868 121.944C262.053 115.6 266.365 113.011 267.523 112.449C268.234 113.045 269.153 113.404 270.156 113.404C272.413 113.404 274.245 111.589 274.245 109.354C274.245 107.119 272.413 105.304 270.156 105.304C269.249 105.304 268.408 105.599 267.727 106.098C261.219 97.2275 266.619 90.3567 269.566 87.5825Z" fill="black"/>
<path fill-rule="evenodd" clip-rule="evenodd" d="M286.988 107.175C286.807 107.125 288.154 106.41 288.501 106.181C289.459 105.55 290.402 104.88 291.291 104.154C293.979 101.951 295.675 99.303 297.541 96.4242C303.874 86.6466 314.068 76.7615 326.356 76.2782C348.091 75.423 360.138 100.026 356.974 118.904C354.575 133.223 339.392 140.724 325.817 138.724C317.753 137.535 309.97 132.892 304.558 126.859C301.379 123.314 298.981 119.157 296.362 115.202C294.006 111.637 291.523 107.689 286.988 107.175Z" fill="black"/>
<defs>
<linearGradient id="paint0_linear_4_73" x1="266.971" y1="282.671" x2="256.721" y2="506.041" gradientUnits="userSpaceOnUse">
<stop stop-color="#FFCCC5"/>
<stop offset="1" stop-color="#F49387"/>
</linearGradient>
</defs>
</svg>
