<svg width="33" height="33" viewBox="0 0 33 33" fill="none" xmlns="http://www.w3.org/2000/svg">
<path d="M0.378662 16.5C0.378662 7.66344 7.54211 0.5 16.3787 0.5C25.2152 0.5 32.3787 7.66344 32.3787 16.5C32.3787 25.3366 25.2152 32.5 16.3787 32.5C7.54211 32.5 0.378662 25.3366 0.378662 16.5Z" fill="#0077B5"/>
<path fill-rule="evenodd" clip-rule="evenodd" d="M11.9245 10.3818C11.9245 11.4279 11.1371 12.2649 9.8728 12.2649H9.84962C8.63231 12.2649 7.84534 11.4279 7.84534 10.3818C7.84534 9.3136 8.65628 8.5 9.89669 8.5C11.1371 8.5 11.901 9.3136 11.9245 10.3818ZM11.6857 13.7519V24.6464H8.05975V13.7519H11.6857ZM24.7621 24.6464L24.7623 18.3998C24.7623 15.0535 22.9735 13.4961 20.5874 13.4961C18.6623 13.4961 17.8004 14.5535 17.3191 15.2953V13.7522H13.6927C13.7405 14.7745 13.6927 24.6467 13.6927 24.6467H17.3191V18.5623C17.3191 18.2367 17.3427 17.9119 17.4385 17.6788C17.7006 17.0283 18.2973 16.3548 19.299 16.3548C20.6116 16.3548 21.1363 17.3538 21.1363 18.8178V24.6464H24.7621Z" fill="white"/>
</svg>
