<svg width="296" height="41" viewBox="0 0 296 41" fill="none" xmlns="http://www.w3.org/2000/svg">
<path d="M0.663208 20.5059C0.663208 16.5872 1.82522 12.7564 4.00235 9.49811C6.17949 6.2398 9.27397 3.70025 12.8944 2.20061C16.5149 0.700976 20.4987 0.308591 24.3421 1.0731C28.1856 1.83761 31.716 3.72469 34.487 6.49566C37.2579 9.26663 39.145 12.797 39.9095 16.6405C40.674 20.4839 40.2816 24.4678 38.782 28.0882C37.2823 31.7087 34.7428 34.8031 31.4845 36.9802C28.2262 39.1574 24.3955 40.3194 20.4767 40.3194C15.2218 40.3194 10.1822 38.2319 6.46645 34.5162C2.7507 30.8004 0.663208 25.7608 0.663208 20.5059Z" fill="white"/>
<path d="M20.5 36.3216C23.6283 36.3216 26.6864 35.3939 29.2874 33.6558C31.8884 31.9176 33.9156 29.4472 35.1125 26.5569C36.3094 23.6666 36.6222 20.4863 36.0115 17.4181C35.4008 14.35 33.8939 11.5319 31.6814 9.32022C29.469 7.10857 26.6503 5.60273 23.582 4.99313C20.5136 4.38353 17.3334 4.69758 14.4435 5.89554C11.5536 7.09349 9.08394 9.12155 7.34677 11.7232C5.60961 14.3249 4.68305 17.3833 4.68421 20.5116C4.68421 22.5883 5.0933 24.6446 5.88819 26.5632C6.68308 28.4817 7.84819 30.2249 9.3169 31.693C10.7856 33.1612 12.5291 34.3256 14.448 35.1198C16.3668 35.914 18.4233 36.3224 20.5 36.3216Z" fill="white"/>
<path d="M64.078 7.57471V18.4313C64.078 24.7658 59.7598 26.9512 54.515 26.9512C48.9614 26.9512 44.9521 24.3754 44.9521 18.4546V7.57471H49.719V18.5654C49.719 21.3101 51.712 22.9651 54.4568 22.9651C56.9801 22.9651 59.3111 21.6481 59.3111 18.2274V7.57471H64.078Z" fill="#213469"/>
<path d="M80.7622 12.5394C77.9824 11.3098 76.3274 10.8319 74.7015 10.8319C73.0757 10.8319 71.8985 11.4147 71.8985 12.3995C71.8985 15.3133 81.6304 14.4741 81.6304 21.1408C81.6304 24.8121 78.5419 26.9391 74.282 26.9391C70.9428 26.9391 69.2937 26.0709 67.3881 25.0918V20.9718C70.1328 22.79 71.8169 23.4368 73.9207 23.4368C75.7388 23.4368 76.7237 22.79 76.7237 21.6886C76.7237 18.5475 66.9918 19.6955 66.9918 12.8308C66.9918 9.52073 69.8531 7.32959 74.282 7.32959C76.5235 7.35555 78.7333 7.86232 80.7622 8.81563V12.5394Z" fill="#213469"/>
<path d="M47.3996 31.4206H45.6165V32.6852H47.3996V33.2738H45.6165V35.4008H44.9579V30.8262H47.3996V31.4206Z" fill="#213469"/>
<path d="M49.2587 30.8032C50.1853 30.8032 50.7622 31.2927 50.7622 32.0853C50.7669 32.3288 50.6952 32.5676 50.5573 32.7683C50.4193 32.969 50.222 33.1214 49.993 33.2042C50.4231 33.5442 50.7715 33.9763 51.0128 34.4687C51.2109 34.7834 51.3216 34.9408 51.6363 35.372H50.8554L50.2727 34.4337C49.6899 33.4955 49.3927 33.3906 49.0605 33.3906H48.7866V35.372H48.1281V30.8032H49.2587ZM48.7633 32.8021H49.1829C49.8881 32.8021 50.0861 32.4408 50.0803 32.0561C50.0745 31.6715 49.8181 31.3627 49.1829 31.3627H48.7633V32.8021Z" fill="#213469"/>
<path d="M53.9207 30.762C54.3757 30.7859 54.8137 30.9427 55.1806 31.2129C55.5475 31.4832 55.8272 31.855 55.985 32.2825C56.1428 32.71 56.1718 33.1744 56.0685 33.6182C55.9653 34.062 55.7342 34.4658 55.4038 34.7797C55.0735 35.0935 54.6584 35.3037 54.2099 35.3842C53.7614 35.4646 53.2991 35.4119 52.8802 35.2324C52.4614 35.0529 52.1043 34.7547 51.8532 34.3744C51.6021 33.9942 51.4679 33.5487 51.4672 33.093C51.4668 32.7763 51.5309 32.4629 51.6557 32.1718C51.7804 31.8807 51.9631 31.6181 52.1927 31.3999C52.4223 31.1818 52.6939 31.0127 52.991 30.903C53.2881 30.7934 53.6044 30.7454 53.9207 30.762ZM53.9207 34.8413C54.2651 34.8355 54.6002 34.7281 54.8838 34.5326C55.1675 34.337 55.387 34.062 55.5149 33.7421C55.6428 33.4222 55.6732 33.0716 55.6025 32.7344C55.5318 32.3973 55.3631 32.0885 55.1175 31.8469C54.8718 31.6053 54.5603 31.4416 54.222 31.3765C53.8837 31.3114 53.5337 31.3477 53.2159 31.4808C52.8981 31.6139 52.6268 31.838 52.436 32.1248C52.2451 32.4117 52.1433 32.7485 52.1432 33.093C52.1383 33.3264 52.1811 33.5584 52.2691 33.7746C52.357 33.9909 52.4883 34.1869 52.6547 34.3506C52.8212 34.5143 53.0193 34.6423 53.237 34.7267C53.4547 34.8111 53.6874 34.85 53.9207 34.8413Z" fill="#213469"/>
<path d="M61.2983 35.4008H60.6397V31.8402H60.6282L59.2178 33.6117H59.113L57.7028 31.8402H57.6911V35.4008H57.0325V30.8262H57.6503L59.1655 32.7027L60.6864 30.8262H61.2983V35.4008Z" fill="#213469"/>
<path d="M67.3705 31.4206H65.7855V35.4008H65.1329V31.4206H63.5478V30.8262H67.3705V31.4206Z" fill="#213469"/>
<path d="M71.7878 35.4008H71.135V33.4078H68.571V35.4008H67.9184V30.8262H68.571V32.8192H71.135V30.8262H71.7878V35.4008Z" fill="#213469"/>
<path d="M75.3775 31.4206H73.4429V32.7959H75.3135V33.3845H73.4429V34.8064H75.4417V35.4008H72.7843V30.8262H75.3775V31.4206Z" fill="#213469"/>
<path d="M81.8635 35.3953H81.1934L80.6106 34.0491H78.6701L78.0873 35.3953H77.423L79.3868 30.7974H79.8472L81.8635 35.3953ZM78.8915 33.4605H80.3367L79.5966 31.8055L78.8915 33.4605Z" fill="#213469"/>
<path d="M86.5431 35.4008H85.8903V31.8402H85.8728L84.4685 33.6117H84.3578L82.9532 31.8402H82.9416V35.4008H82.2831V30.8262H82.9009L84.416 32.7027L85.937 30.8262H86.5431V35.4008Z" fill="#213469"/>
<path d="M90.1094 31.4206H88.169V32.7959H90.0396V33.3845H88.169V34.8064H90.1678V35.4008H87.5162V30.8262H90.1094V31.4206Z" fill="#213469"/>
<path d="M92.0268 30.8032C92.9534 30.8032 93.5303 31.2927 93.5303 32.0853C93.5355 32.3281 93.4647 32.5664 93.3278 32.767C93.191 32.9676 92.9948 33.1204 92.7668 33.2042C93.1951 33.5446 93.5416 33.9767 93.7808 34.4687C93.979 34.7834 94.0897 34.9408 94.4102 35.372H93.6235L93.0408 34.4337C92.458 33.4955 92.1608 33.3906 91.8228 33.3906H91.5489V35.372H90.8962V30.8032H92.0268ZM91.5314 32.8021H91.9568C92.6619 32.8021 92.8601 32.4408 92.8543 32.0561C92.8484 31.6715 92.592 31.3627 91.9568 31.3627H91.5314V32.8021Z" fill="#213469"/>
<path d="M95.3717 30.8262H94.7133V35.4008H95.3717V30.8262Z" fill="#213469"/>
<path d="M100.15 31.8463C99.6802 31.5441 99.1355 31.3787 98.5769 31.3684C98.3415 31.359 98.1066 31.3972 97.8863 31.4809C97.6661 31.5645 97.465 31.6918 97.2952 31.8551C97.1254 32.0184 96.9903 32.2143 96.8981 32.4311C96.8059 32.6479 96.7585 32.8811 96.7587 33.1166C96.7521 33.3565 96.7962 33.5952 96.8881 33.8169C96.98 34.0386 97.1176 34.2384 97.2919 34.4034C97.4662 34.5684 97.6733 34.6947 97.8997 34.7742C98.1262 34.8538 98.3668 34.8846 98.606 34.8649C99.1741 34.8481 99.7258 34.6703 100.197 34.3521V35.0689C99.6888 35.3427 99.1189 35.4812 98.5419 35.471C98.229 35.4891 97.9158 35.4439 97.6208 35.3382C97.3258 35.2324 97.0552 35.0683 96.8251 34.8556C96.595 34.6429 96.4101 34.386 96.2816 34.1002C96.153 33.8144 96.0834 33.5057 96.0768 33.1924C96.0716 32.8662 96.1335 32.5423 96.2588 32.241C96.3841 31.9397 96.57 31.6675 96.8051 31.4412C97.0401 31.2149 97.3193 31.0394 97.6251 30.9256C97.9309 30.8118 98.2569 30.7622 98.5827 30.7798C99.1254 30.7948 99.659 30.9218 100.15 31.1528V31.8463Z" fill="#213469"/>
<path d="M104.876 35.3953H104.229L103.647 34.0491H101.706L101.123 35.3953H100.453L102.417 30.7974H102.878L104.876 35.3953ZM101.904 33.4605H103.326L102.592 31.8055L101.904 33.4605Z" fill="#213469"/>
<path d="M109.538 35.4008H108.973L105.92 31.881V35.4008H105.302V30.8262H105.826L108.921 34.3635V30.8262H109.538V35.4008Z" fill="#213469"/>
<path d="M113.961 30.8031C114.146 30.7775 114.335 30.7927 114.513 30.8474C114.691 30.9022 114.856 30.9953 114.995 31.1201C115.133 31.245 115.243 31.3986 115.316 31.5704C115.389 31.7421 115.424 31.9277 115.418 32.1143C115.418 32.8311 114.935 33.3963 113.874 33.3963H113.192V35.3719H112.534V30.8031H113.961ZM113.192 32.8077H113.938C114.039 32.8223 114.143 32.8145 114.24 32.7848C114.338 32.7551 114.429 32.7043 114.505 32.6359C114.581 32.5676 114.641 32.4833 114.681 32.3892C114.721 32.295 114.74 32.1932 114.736 32.091C114.736 31.753 114.562 31.3917 113.961 31.3917H113.192V32.8077Z" fill="#213469"/>
<path d="M118.577 31.4206H116.642V32.7959H118.513V33.3845H116.642V34.8064H118.641V35.4008H115.984V30.8262H118.577V31.4206Z" fill="#213469"/>
<path d="M121.584 30.762C122.039 30.7859 122.477 30.9427 122.844 31.2129C123.211 31.4832 123.49 31.855 123.648 32.2825C123.806 32.71 123.835 33.1744 123.732 33.6182C123.628 34.062 123.397 34.4658 123.067 34.7797C122.737 35.0935 122.322 35.3037 121.873 35.3842C121.425 35.4646 120.962 35.4119 120.543 35.2324C120.125 35.0529 119.768 34.7547 119.516 34.3744C119.265 33.9942 119.131 33.5487 119.13 33.093C119.13 32.7763 119.194 32.4629 119.319 32.1718C119.444 31.8807 119.626 31.6181 119.856 31.3999C120.085 31.1818 120.357 31.0127 120.654 30.903C120.951 30.7934 121.268 30.7454 121.584 30.762ZM121.584 34.8413C121.93 34.8413 122.268 34.7387 122.555 34.5466C122.843 34.3545 123.067 34.0815 123.199 33.762C123.331 33.4426 123.366 33.0911 123.299 32.7519C123.231 32.4128 123.065 32.1013 122.82 31.8568C122.576 31.6123 122.264 31.4458 121.925 31.3784C121.586 31.3109 121.234 31.3455 120.915 31.4779C120.595 31.6102 120.322 31.8342 120.13 32.1217C119.938 32.4092 119.836 32.7472 119.836 33.093C119.831 33.3239 119.873 33.5534 119.959 33.7676C120.045 33.9819 120.174 34.1765 120.337 34.3398C120.5 34.5031 120.695 34.6317 120.909 34.7179C121.123 34.804 121.353 34.846 121.584 34.8413Z" fill="#213469"/>
<path d="M126.106 30.8027C126.291 30.777 126.479 30.7921 126.657 30.8469C126.835 30.9017 126.999 30.9949 127.137 31.1198C127.276 31.2448 127.385 31.3986 127.457 31.5703C127.53 31.742 127.564 31.9276 127.557 32.1139C127.557 32.8307 127.079 33.3959 126.019 33.3959H125.337V35.3715H124.678V30.8027H126.106ZM125.337 32.8073H126.077C126.178 32.8218 126.282 32.8139 126.38 32.7843C126.478 32.7546 126.569 32.7039 126.645 32.6356C126.722 32.5674 126.783 32.4833 126.823 32.3891C126.864 32.295 126.884 32.1931 126.881 32.0906C126.887 31.9906 126.87 31.8906 126.832 31.798C126.794 31.7054 126.735 31.6225 126.661 31.5554C126.587 31.4883 126.498 31.4388 126.402 31.4104C126.306 31.382 126.205 31.3754 126.106 31.3913H125.337V32.8073Z" fill="#213469"/>
<path d="M128.781 34.8064H130.844V35.4008H128.122V30.8262H128.781V34.8064Z" fill="#213469"/>
<path d="M133.938 31.4206H131.998V32.7959H133.868V33.3845H131.998V34.8064H133.996V35.4008H131.345V30.8262H133.938V31.4206Z" fill="#213469"/>
<path d="M0.5 20.5058C0.501153 24.4614 1.67528 28.3279 3.87386 31.6162C6.07245 34.9046 9.19675 37.4671 12.8517 38.9798C16.5067 40.4925 20.5281 40.8874 24.4075 40.1146C28.2869 39.3417 31.85 37.4358 34.6462 34.638C37.4425 31.8401 39.3463 28.2759 40.1168 24.3961C40.8874 20.5162 40.4901 16.495 38.9753 12.8409C37.4605 9.18686 34.8962 6.06402 31.6066 3.86735C28.3169 1.67069 24.4498 0.498848 20.4942 0.500001C15.1913 0.506175 10.1075 2.61628 6.35887 6.36709C2.61024 10.1179 0.503084 15.2029 0.5 20.5058ZM0.832136 20.5058C0.832136 16.6156 1.98578 12.8129 4.14717 9.57837C6.30855 6.34389 9.38062 3.82301 12.9748 2.33458C16.5689 0.846136 20.5238 0.456986 24.3391 1.21635C28.1545 1.97571 31.6589 3.84945 34.4093 6.60063C37.1596 9.35181 39.0324 12.8568 39.7906 16.6724C40.5488 20.488 40.1585 24.4427 38.669 28.0364C37.1795 31.6301 34.6577 34.7014 31.4226 36.8618C28.1875 39.0223 24.3844 40.1748 20.4942 40.1736C15.2804 40.1674 10.2819 38.0932 6.59576 34.4059C2.90959 30.7186 0.836763 25.7196 0.832136 20.5058Z" fill="#213469"/>
<path d="M4.521 20.5059C4.521 23.6662 5.45814 26.7556 7.21394 29.3833C8.96974 32.0111 11.4653 34.0592 14.3851 35.2686C17.3048 36.478 20.5178 36.7944 23.6174 36.1779C26.717 35.5613 29.5642 34.0395 31.7989 31.8048C34.0336 29.57 35.5554 26.7229 36.172 23.6232C36.7885 20.5236 36.4721 17.3107 35.2627 14.391C34.0533 11.4712 32.0052 8.97563 29.3774 7.21983C26.7497 5.46404 23.6603 4.52686 20.5 4.52686C16.2635 4.53148 12.2019 6.21648 9.20626 9.21212C6.21062 12.2078 4.52562 16.2694 4.521 20.5059ZM4.8473 20.5059C4.8473 17.4101 5.76532 14.3838 7.48525 11.8097C9.20519 9.23567 11.6498 7.22941 14.51 6.04469C17.3701 4.85998 20.5174 4.55 23.5537 5.15396C26.59 5.75792 29.379 7.2487 31.5681 9.43776C33.7572 11.6268 35.248 14.4159 35.8519 17.4522C36.4559 20.4885 36.1459 23.6358 34.9612 26.4959C33.7764 29.3561 31.7703 31.8007 29.1962 33.5206C26.6221 35.2405 23.5958 36.1586 20.5 36.1586C16.35 36.1539 12.3715 34.5033 9.43703 31.5689C6.50258 28.6345 4.85193 24.6558 4.8473 20.5059Z" fill="#213469"/>
<path d="M29.6724 26.1528H11.3973V29.0199H29.6724V26.1528Z" fill="#213469"/>
<path d="M29.6783 9.52686H11.3973V14.8299H29.6783V9.52686Z" fill="#213469"/>
<path d="M29.6783 9.52686H11.3973V14.8299H29.6783V9.52686Z" fill="#213469"/>
<path d="M38.3263 17.2893V18.0411L37.8718 17.435L37.1492 17.6681L37.5979 17.062L37.155 16.4618L37.8776 16.6949L38.3322 16.0889L38.3263 16.8406L39.0314 17.0678L38.3263 17.2893Z" fill="#213469"/>
<path d="M2.53374 16.8406L2.53958 16.0889L2.98831 16.6949L3.71091 16.4618L3.26218 17.062L3.71091 17.6681L2.98831 17.4291L2.53374 18.0411V17.2893L1.83447 17.062L2.53374 16.8406Z" fill="#213469"/>
<path d="M3.9965 11.1587L5.10374 11.7065C5.3361 11.8492 5.50688 12.0735 5.5827 12.3354C5.65852 12.5973 5.6339 12.8781 5.5137 13.1229C5.3935 13.3677 5.18636 13.5588 4.93273 13.659C4.67909 13.7592 4.3972 13.7611 4.14219 13.6645L3.02911 13.1168L3.26806 12.6272L4.3928 13.21C4.45439 13.2425 4.52216 13.2616 4.5917 13.2658C4.66123 13.2701 4.73091 13.2594 4.796 13.2346C4.86109 13.2098 4.9201 13.1714 4.96915 13.1219C5.0182 13.0724 5.05614 13.013 5.08041 12.9477C5.12003 12.8858 5.14557 12.8159 5.15517 12.743C5.16477 12.6702 5.15821 12.596 5.13596 12.526C5.11372 12.4559 5.07629 12.3916 5.02641 12.3376C4.97653 12.2836 4.91538 12.2412 4.84729 12.2135L3.75755 11.6773L3.9965 11.1587Z" fill="#213469"/>
<path d="M7.3881 9.9873L7.1259 10.3602L5.29015 10.5467L6.43246 11.3451L6.12358 11.7938L4.34033 10.5409L4.62587 10.133L6.38579 9.94647L5.29598 9.1831L5.60485 8.73438L7.3881 9.9873Z" fill="#213469"/>
<path d="M6.43304 7.89334L6.07629 8.30127L7.71692 9.73601L8.07366 9.32808L6.43304 7.89334Z" fill="#213469"/>
<path d="M8.5594 6.26891L7.98831 6.81083L9.20631 8.10452L8.80994 8.47749L7.59208 7.17797L7.01517 7.71996L6.74115 7.42858L8.28552 5.97754L8.5594 6.26891Z" fill="#213469"/>
<path d="M11.2983 6.46163L9.99879 7.40568L8.71094 5.64577L9.99296 4.71338L10.2261 5.03392L9.38688 5.6516L9.65492 6.01873L10.4592 5.43015L10.6922 5.75652L9.89394 6.33927L10.2028 6.76467L11.0594 6.13526L11.2983 6.46163Z" fill="#213469"/>
<path d="M11.3799 3.89155C11.506 3.80364 11.6493 3.74355 11.8004 3.71528C11.9515 3.687 12.1069 3.69117 12.2563 3.72755C12.4056 3.76392 12.5455 3.83165 12.6667 3.92623C12.7878 4.02082 12.8876 4.1401 12.9591 4.27615C13.2563 4.82394 13.1281 5.44168 12.3764 5.83212L11.5838 6.26335L10.5465 4.35191L11.3799 3.89155ZM11.8577 5.6398L12.1724 5.47082C12.3324 5.38272 12.4507 5.23466 12.5016 5.05926C12.5524 4.88385 12.5315 4.69545 12.4434 4.53548C12.3553 4.37552 12.2072 4.25711 12.0318 4.2063C11.8564 4.15548 11.668 4.17643 11.5081 4.26452L11.1992 4.43351L11.8577 5.6398Z" fill="#213469"/>
<path d="M15.4708 2.83048C15.2344 2.78097 14.9903 2.78097 14.754 2.83048C14.5675 2.89458 14.4685 2.99949 14.5034 3.09855C14.6083 3.41324 15.634 2.982 15.8671 3.6813C15.9953 4.07757 15.7389 4.41555 15.2843 4.56706C15.0246 4.66128 14.7431 4.67749 14.4743 4.61369L14.3286 4.16496C14.5809 4.26622 14.8597 4.28057 15.1211 4.20576C15.3193 4.13583 15.4009 4.03676 15.3601 3.91438C15.2493 3.57056 14.2354 4.04259 13.9965 3.29667C13.8741 2.94119 14.1072 2.60322 14.5792 2.44588C14.8217 2.36809 15.0782 2.34419 15.3309 2.37591L15.4708 2.83048Z" fill="#213469"/>
<path d="M17.9418 2.10238L17.1666 2.2539L17.5105 4.00215L16.9801 4.10118L16.6364 2.35876L15.8613 2.51028L15.7855 2.11988L17.8659 1.71191L17.9418 2.10238Z" fill="#213469"/>
<path d="M20.4067 3.68727L19.824 3.7339L19.6142 3.32017L18.641 3.39589L18.5128 3.83879L17.9301 3.88542L18.641 1.64184L19.2645 1.59521L20.4067 3.68727ZM19.0081 2.13717L18.7517 3.00546L19.4219 2.95303L19.0081 2.13717Z" fill="#213469"/>
<path d="M22.2657 2.00956L21.479 1.9804L21.4149 3.75781L20.867 3.74031L20.937 1.96297L20.1503 1.9338L20.1619 1.53174L22.2832 1.61326L22.2657 2.00956Z" fill="#213469"/>
<path d="M24.0489 4.0898L22.4639 3.83342L22.8134 1.68311L24.381 1.93948L24.317 2.32995L23.2913 2.16676L23.2155 2.61549L24.1946 2.77861L24.1305 3.16908L23.1515 3.01172L23.064 3.52454L24.113 3.6994L24.0489 4.0898Z" fill="#213469"/>
<path d="M26.2401 3.02338C26.0658 2.85451 25.857 2.72528 25.6281 2.64458C25.4417 2.59213 25.3018 2.64459 25.2727 2.73201C25.1853 3.04669 26.275 3.26229 26.071 3.99073C25.9545 4.39866 25.5466 4.5327 25.0804 4.39866C24.8148 4.32512 24.5734 4.18232 24.381 3.9849L24.5092 3.53037C24.6677 3.75146 24.8922 3.9167 25.1503 4.0024C25.3543 4.06067 25.4766 4.0024 25.5116 3.89751C25.6107 3.55368 24.5092 3.37886 24.7248 2.62128C24.8239 2.25998 25.2085 2.10845 25.6922 2.24831C25.9379 2.32056 26.1647 2.4459 26.3566 2.61545L26.2401 3.02338Z" fill="#213469"/>
<path d="M28.7283 5.83803L28.1981 5.58745V5.12126L27.3123 4.71333L26.9801 5.03387L26.4615 4.78909L28.2097 3.18652L28.7925 3.4546L28.7283 5.83803ZM28.2797 3.7984L27.627 4.42778L28.2097 4.71333L28.2797 3.7984Z" fill="#213469"/>
<path d="M31.3856 5.70961C31.2403 5.46249 31.0411 5.25135 30.8029 5.0919C30.7283 5.02537 30.6402 4.97576 30.5446 4.94646C30.449 4.91716 30.3482 4.90884 30.2492 4.92213C30.1501 4.93541 30.0551 4.96999 29.9706 5.02343C29.8861 5.07687 29.8142 5.14792 29.7598 5.23175C29.7107 5.31156 29.6791 5.40083 29.6671 5.49371C29.655 5.58659 29.6627 5.68098 29.6897 5.77068C29.7166 5.86038 29.7623 5.94339 29.8236 6.01422C29.8849 6.08504 29.9604 6.14208 30.0453 6.18164C30.1457 6.25248 30.2616 6.29841 30.3833 6.31566L30.5232 6.10004L30.2609 5.93106L30.4824 5.59305L31.1992 6.06508L30.7096 6.81102C30.3814 6.83409 30.055 6.74581 29.7831 6.56044C29.6323 6.49337 29.4979 6.39425 29.3893 6.26999C29.2807 6.14573 29.2004 5.99931 29.1541 5.84089C29.1078 5.68247 29.0966 5.51585 29.1212 5.35265C29.1458 5.18945 29.2056 5.03356 29.2966 4.89584C29.3875 4.75812 29.5074 4.64187 29.6479 4.55517C29.7883 4.46847 29.9459 4.41341 30.1098 4.3938C30.2737 4.37419 30.4399 4.39048 30.5968 4.4416C30.7537 4.49272 30.8976 4.57743 31.0185 4.6898C31.2663 4.85149 31.4769 5.06404 31.6363 5.31334L31.3856 5.70961Z" fill="#213469"/>
<path d="M32.0735 8.34364L30.8555 7.29467L32.2773 5.64551L33.4778 6.67699L33.2156 6.98003L32.4289 6.29819L32.1258 6.64782L32.8834 7.29467L32.6212 7.59771L31.8694 6.95086L31.5256 7.34716L32.3357 8.0406L32.0735 8.34364Z" fill="#213469"/>
<path d="M33.7925 10.2203L33.4895 9.88237L33.7342 8.05253L32.6911 8.97908L32.3298 8.57119L33.9616 7.12598L34.2936 7.49895L34.0664 9.25886L35.0629 8.37307L35.4243 8.77513L33.7925 10.2203Z" fill="#213469"/>
<path d="M35.2959 12.1551C35.032 12.0223 34.8086 11.8211 34.6491 11.5724C34.552 11.4486 34.481 11.3064 34.4404 11.1544C34.3998 11.0024 34.3903 10.8438 34.4127 10.6881C34.435 10.5323 34.4886 10.3827 34.5703 10.2483C34.652 10.1138 34.7601 9.9973 34.888 9.90573C35.0265 9.82112 35.1812 9.76636 35.3421 9.745C35.5031 9.72364 35.6666 9.73613 35.8225 9.78167C35.9783 9.8272 36.1228 9.90479 36.2469 10.0094C36.371 10.1141 36.4718 10.2435 36.543 10.3894C36.7025 10.6157 36.7955 10.8822 36.8111 11.1586L36.409 11.4209C36.3998 11.1548 36.3215 10.8957 36.1817 10.6691C36.1426 10.5811 36.0849 10.5025 36.0127 10.4387C35.9404 10.3749 35.8553 10.3275 35.7631 10.2996C35.6708 10.2717 35.5736 10.2641 35.4782 10.2772C35.3827 10.2903 35.2912 10.3238 35.2098 10.3755C35.1285 10.4272 35.0592 10.4958 35.0068 10.5767C34.9544 10.6575 34.9201 10.7487 34.9061 10.8441C34.8922 10.9394 34.8989 11.0367 34.926 11.1292C34.953 11.2217 34.9997 11.3073 35.0629 11.3801C35.2268 11.6065 35.4426 11.7904 35.6922 11.9162L35.2959 12.1551Z" fill="#213469"/>
<path d="M36.4847 12.6913L37.1666 11.4209L37.4522 12.0153L37.0326 12.7379L37.8543 12.8778L38.134 13.4664L36.7179 13.1808L35.7913 13.6179L35.5641 13.1283L36.4847 12.6913Z" fill="#213469"/>
<path d="M3.76885 20.91L1.59119 20.999L1.61331 21.5405L3.79098 21.4515L3.76885 20.91Z" fill="#213469"/>
<path d="M1.95099 24.375L1.88113 23.9263L3.08746 22.5277L1.70628 22.7317L1.62476 22.1955L3.78674 21.875L3.85659 22.3704L2.70859 23.7165L4.02561 23.5242L4.10728 24.0603L1.95099 24.375Z" fill="#213469"/>
<path d="M4.38115 26.4326L4.1538 25.675L2.45221 26.182L2.29486 25.6634L3.99645 25.1564L3.77507 24.3988L4.15963 24.2881L4.76572 26.316L4.38115 26.4326Z" fill="#213469"/>
<path d="M3.51868 28.8915L2.87177 27.4171L4.86473 26.543L5.50581 27.9882L5.1386 28.1514L4.71904 27.2015L4.29947 27.3822L4.70154 28.2912L4.33447 28.4544L3.93824 27.5453L3.45452 27.7551L3.88574 28.7283L3.51868 28.8915Z" fill="#213469"/>
<path d="M6.15851 29.1424C6.21153 29.2139 6.24922 29.2956 6.26919 29.3824C6.28917 29.4692 6.29101 29.5592 6.2746 29.6467C6.25819 29.7343 6.22386 29.8174 6.1738 29.8911C6.12374 29.9648 6.05907 30.0273 5.98372 30.0748C5.88285 30.1311 5.76748 30.1563 5.6523 30.1469C5.53712 30.1376 5.42735 30.0942 5.33688 30.0223C5.33688 30.2729 5.15623 30.4652 4.75413 31.0596L4.45109 30.5468C4.73663 30.1039 5.03385 29.8184 4.89982 29.5678L4.82406 29.4279L4.06062 29.8825L3.78674 29.4163L5.65735 28.3032L6.15851 29.1424ZM5.17369 29.2239L5.31938 29.4745C5.39514 29.6027 5.52334 29.696 5.68068 29.6027C5.83802 29.5095 5.84384 29.3871 5.73894 29.2123L5.59325 28.9734L5.17369 29.2239Z" fill="#213469"/>
<path d="M6.39745 33.1628L6.11774 32.8073L6.4498 30.9891L5.36014 31.8633L5.02209 31.4379L6.72966 30.0801L7.03839 30.4705L6.72382 32.2071L7.76099 31.3796L8.10487 31.805L6.39745 33.1628Z" fill="#213469"/>
<path d="M8.5245 35.1972L8.09911 34.801L8.26222 34.3639L7.54545 33.6996L7.13172 33.9035L6.71216 33.5131L8.83921 32.5166L9.29954 32.9478L8.5245 35.1972ZM8.72262 33.1168L7.91259 33.5189L8.40215 33.9793L8.72262 33.1168Z" fill="#213469"/>
<path d="M11.2109 34.9464L10.5698 34.4802L9.52086 35.9138L9.0838 35.5874L10.1386 34.1539L9.49767 33.6877L9.73655 33.3672L11.444 34.6259L11.2109 34.9464Z" fill="#213469"/>
<path d="M11.6829 34.6992L10.5636 36.5693L11.0286 36.8477L12.1479 34.9775L11.6829 34.6992Z" fill="#213469"/>
<path d="M12.6561 37.7554C12.4692 37.6446 12.3183 37.4821 12.2218 37.2874C12.1252 37.0927 12.0872 36.8742 12.1122 36.6583C12.1372 36.4424 12.2243 36.2385 12.3628 36.071C12.5013 35.9035 12.6853 35.7798 12.8927 35.7147C13.1 35.6496 13.3218 35.646 13.5311 35.7043C13.7405 35.7626 13.9284 35.8803 14.0723 36.0431C14.2162 36.206 14.3098 36.407 14.3418 36.6219C14.3739 36.8369 14.343 37.0565 14.2529 37.2542C14.1827 37.3937 14.0854 37.5176 13.9665 37.6187C13.8475 37.7198 13.7095 37.796 13.5606 37.8428C13.4116 37.8895 13.2549 37.9058 13.0995 37.8908C12.9442 37.8758 12.7934 37.8298 12.6561 37.7554ZM13.3962 36.1295C13.3169 36.0859 13.2293 36.0595 13.139 36.0521C13.0487 36.0448 12.9579 36.0566 12.8726 36.0869C12.7873 36.1172 12.7093 36.1652 12.6439 36.2278C12.5785 36.2904 12.527 36.3661 12.4929 36.45C12.451 36.5305 12.4268 36.6191 12.422 36.7097C12.4172 36.8003 12.4319 36.8909 12.465 36.9754C12.4981 37.0599 12.5489 37.1363 12.6141 37.1995C12.6792 37.2626 12.7572 37.3111 12.8426 37.3416C12.9222 37.3799 13.0086 37.4021 13.0967 37.407C13.1849 37.4119 13.2732 37.3994 13.3565 37.3702C13.4399 37.3409 13.5166 37.2956 13.5824 37.2367C13.6482 37.1778 13.7018 37.1065 13.74 37.027C13.7783 36.9474 13.8005 36.861 13.8054 36.7729C13.8103 36.6847 13.7978 36.5964 13.7686 36.5131C13.7393 36.4297 13.694 36.353 13.6351 36.2872C13.5762 36.2214 13.505 36.1678 13.4254 36.1295" fill="#213469"/>
<path d="M16.5255 39.0371L16.0826 38.9146L15.2902 37.248L14.923 38.5942L14.3986 38.4485L14.9755 36.3506L15.4592 36.4846L16.2225 38.0755L16.578 36.7876L17.1025 36.9333L16.5255 39.0371Z" fill="#213469"/>
<path d="M19.4451 39.4334L18.8624 39.3634L18.7342 38.9148L17.7668 38.7982L17.5512 39.2062L16.9684 39.1362L18.1339 37.0791L18.7575 37.149L19.4451 39.4334ZM18.3787 37.6327L17.9591 38.4369L18.6234 38.5185L18.3787 37.6327Z" fill="#213469"/>
<path d="M21.5489 39.4159L19.888 39.4275L19.8763 37.248L20.4184 37.2422L20.4299 39.0254L21.5489 39.0138V39.4159Z" fill="#213469"/>
<path d="M23.542 36.9745C23.6895 36.9292 23.845 36.9159 23.9981 36.9356C24.1512 36.9553 24.2982 37.0074 24.4295 37.0885C24.5608 37.1696 24.6733 37.2778 24.7594 37.4058C24.8455 37.5339 24.9033 37.6789 24.9289 37.8311C25.0396 38.4138 24.7307 38.9966 23.8741 39.1248L22.9941 39.288L22.5979 37.1435L23.542 36.9745ZM23.4545 38.7984L23.8042 38.7343C23.8998 38.7247 23.9923 38.6953 24.076 38.648C24.1596 38.6007 24.2325 38.5365 24.29 38.4595C24.3476 38.3826 24.3885 38.2945 24.4102 38.2009C24.4319 38.1072 24.4338 38.0101 24.416 37.9157C24.3982 37.8213 24.3609 37.7316 24.3066 37.6523C24.2523 37.5731 24.182 37.5059 24.1004 37.4552C24.0187 37.4045 23.9275 37.3714 23.8323 37.3579C23.7372 37.3443 23.6403 37.3507 23.5478 37.3766L23.2039 37.4407L23.4545 38.7984Z" fill="#213469"/>
<path d="M27.2249 38.2392L25.6922 38.7345L25.0221 36.6599L26.5315 36.1704L26.6538 36.5492L25.6632 36.8697L25.8089 37.3067L26.7528 36.9979L26.8752 37.3825L25.9254 37.6855L26.0886 38.1867L27.1026 37.8546L27.2249 38.2392Z" fill="#213469"/>
<path d="M28.74 37.6034L28.5303 37.7083L26.6364 36.1523L27.1724 35.9018L28.2214 36.7876L28.1923 35.4297L28.7226 35.1792L28.74 37.6034Z" fill="#213469"/>
<path d="M31.3682 36.071L30.0105 36.9277L28.845 35.0861L30.191 34.2354L30.4009 34.5733L29.5209 35.1327L29.7656 35.5174L30.6049 34.9871L30.8146 35.3251L29.9755 35.8553L30.2552 36.2982L31.1585 35.733L31.3682 36.071Z" fill="#213469"/>
<path d="M33.1339 34.6845L31.8402 35.7218L30.4767 34.026L30.8962 33.688L32.0151 35.0749L32.8834 34.3698L33.1339 34.6845Z" fill="#213469"/>
<path d="M34.3345 33.5245C34.1699 33.6664 33.9676 33.7576 33.7522 33.7869C33.5369 33.8163 33.3176 33.7827 33.121 33.6901C32.9243 33.5974 32.7587 33.4498 32.6442 33.2651C32.5297 33.0803 32.4712 32.8664 32.4758 32.649C32.4803 32.4317 32.5477 32.2204 32.6698 32.0406C32.792 31.8608 32.9635 31.7203 33.1639 31.636C33.3642 31.5516 33.5847 31.5271 33.7986 31.5655C34.0126 31.6038 34.2109 31.7034 34.3694 31.852C34.4791 31.963 34.5653 32.0948 34.6231 32.2398C34.6809 32.3847 34.7089 32.5397 34.7057 32.6957C34.7024 32.8516 34.6679 33.0054 34.6042 33.1477C34.5404 33.2901 34.4487 33.4182 34.3345 33.5245ZM33.0349 32.3008C32.9483 32.3987 32.8926 32.5199 32.8746 32.6494C32.8566 32.7789 32.8772 32.9107 32.9338 33.0285C32.9904 33.1463 33.0805 33.2448 33.1928 33.3117C33.3051 33.3785 33.4346 33.4107 33.5652 33.4043C33.6957 33.3979 33.8215 33.3532 33.9267 33.2756C34.0319 33.1981 34.1119 33.0913 34.1567 32.9685C34.2015 32.8457 34.2091 32.7124 34.1785 32.5854C34.1479 32.4583 34.0805 32.3431 33.9848 32.2541C33.9215 32.1907 33.8457 32.1412 33.7621 32.1089C33.6785 32.0766 33.589 32.0621 33.4995 32.0665C33.41 32.0709 33.3224 32.0941 33.2424 32.1344C33.1624 32.1747 33.0917 32.2314 33.0349 32.3008Z" fill="#213469"/>
<path d="M34.2994 30.0454C34.3434 29.9645 34.4039 29.8938 34.4771 29.838C34.5503 29.7821 34.6344 29.7424 34.7241 29.7213C34.8137 29.7003 34.9068 29.6985 34.9971 29.716C35.0875 29.7335 35.1732 29.77 35.2485 29.8229C35.3239 29.8759 35.3871 29.9442 35.4341 30.0233C35.4812 30.1025 35.511 30.1907 35.5215 30.2821C35.532 30.3736 35.5231 30.4663 35.4952 30.554C35.4674 30.6418 35.4213 30.7226 35.36 30.7913L35.1153 31.1468L35.8321 31.648L35.5174 32.0967L33.7342 30.8438L34.2994 30.0454ZM34.7889 30.9137L34.9346 30.7098C35.0803 30.5058 35.057 30.3834 34.9346 30.2902C34.8122 30.1969 34.6666 30.2319 34.4976 30.4708L34.3869 30.6224L34.7889 30.9137Z" fill="#213469"/>
<path d="M35.733 27.5572L35.9487 27.1318L37.8893 28.1226L37.6444 28.6062L36.4324 27.9885L36.7761 28.8218L36.7355 28.8976L35.8613 29.1132L37.0733 29.7309L36.8286 30.2146L34.8822 29.2239L35.0979 28.8043L36.1352 28.548L35.733 27.5572Z" fill="#213469"/>
<path d="M38.6526 25.9484L38.134 27.4694L36.071 26.7642L36.5839 25.2666L36.9627 25.3948L36.6246 26.3796L37.0559 26.5311L37.3822 25.5871L37.7553 25.7212L37.4347 26.6594L37.93 26.8283L38.2739 25.8202L38.6526 25.9484Z" fill="#213469"/>
<path d="M39.2586 23.192L39.1713 23.6408L37.5687 24.5557L38.9322 24.8238L38.8332 25.3541L36.6946 24.9344L36.7878 24.445L38.3205 23.565L37.0151 23.3028L37.12 22.7725L39.2586 23.192Z" fill="#213469"/>
<path d="M37.6619 20.436L37.6154 21.2285L39.3927 21.3217L39.3636 21.8637L37.5862 21.7705L37.5454 22.5572L37.1492 22.5338L37.2657 20.4185L37.6619 20.436Z" fill="#213469"/>
<path fill-rule="evenodd" clip-rule="evenodd" d="M17.6503 22.3416L17.6036 22.2833C17.6036 22.2833 17.6036 22.2833 17.6036 22.2542C17.6036 22.225 17.6036 22.2542 17.6036 22.2542H17.557C17.557 22.2542 17.557 22.3124 17.557 22.3474C17.557 22.3824 17.557 22.3474 17.557 22.3823C17.5112 22.4133 17.47 22.4505 17.4347 22.4931C17.4845 22.4791 17.5331 22.4616 17.5804 22.4406H17.6153C17.6153 22.4406 17.6153 22.4406 17.6503 22.4406" fill="#213469"/>
<path fill-rule="evenodd" clip-rule="evenodd" d="M18.5652 17.231H18.6002C18.5983 17.2445 18.5983 17.2582 18.6002 17.2718L18.6468 17.3766C18.6468 17.3766 18.6467 17.3766 18.6759 17.3766C18.6795 17.3673 18.6795 17.3569 18.6759 17.3475C18.678 17.3301 18.678 17.3125 18.6759 17.2951V17.3999C18.6759 17.3533 18.6759 17.3242 18.6293 17.3125C18.6122 17.3075 18.594 17.3075 18.5769 17.3125H18.5652" fill="#213469"/>
<path fill-rule="evenodd" clip-rule="evenodd" d="M18.7867 17.8251L18.7226 17.8892C18.7226 17.8892 18.6585 17.9475 18.6235 17.9475C18.6146 17.947 18.6061 17.944 18.5989 17.9389C18.5917 17.9337 18.586 17.9266 18.5827 17.9184C18.5827 17.8834 18.5827 17.8601 18.5827 17.8309C18.58 17.8194 18.58 17.8075 18.5827 17.796V17.761C18.5827 17.761 18.5477 17.796 18.5302 17.8135L18.4895 17.8543C18.4895 17.8543 18.4545 17.8892 18.437 17.9067C18.4152 17.9189 18.3955 17.9347 18.3788 17.9533L18.3321 17.9999C18.3321 17.9999 18.303 18.0349 18.2797 18.0407C18.2723 18.0375 18.2644 18.0359 18.2564 18.0359C18.2483 18.0359 18.2404 18.0375 18.2331 18.0407C18.2602 18.0434 18.2875 18.0434 18.3146 18.0407H18.4079H18.4778C18.5089 18.0348 18.5386 18.0229 18.5652 18.0057H18.641C18.641 18.0057 18.641 18.0057 18.6818 18.0057C18.6818 18.0057 18.6818 18.0057 18.6818 17.9708C18.6818 17.9358 18.6818 17.9708 18.6818 17.9358C18.6842 17.9263 18.6842 17.9162 18.6818 17.9067C18.6818 17.9067 18.6818 17.9067 18.6818 17.8659C18.6818 17.8251 18.6818 17.8659 18.6818 17.8251C18.6997 17.7913 18.7153 17.7562 18.7284 17.7202C18.7284 17.7202 18.7284 17.6561 18.7284 17.6328L18.6527 17.7435" fill="#213469"/>
<path fill-rule="evenodd" clip-rule="evenodd" d="M18.1573 17.9479L18.0931 18.0061L18.0232 18.0703L17.9882 18.0994L17.9183 18.1693H17.8775C17.8806 18.1788 17.8806 18.189 17.8775 18.1985C17.8744 18.2038 17.8729 18.2098 17.8729 18.216C17.8729 18.2221 17.8744 18.2281 17.8775 18.2334H17.9591L18.1048 18.0761C18.1542 18.0179 18.1955 17.9532 18.2272 17.8838" fill="#213469"/>
<path fill-rule="evenodd" clip-rule="evenodd" d="M17.761 18.0464L17.6969 18.093L17.6619 18.128C17.6573 18.1511 17.6573 18.1748 17.6619 18.1979H17.7435V18.1629C17.7411 18.1514 17.7411 18.1395 17.7435 18.128" fill="#213469"/>
<path fill-rule="evenodd" clip-rule="evenodd" d="M17.4697 18.0991H17.3997H17.3647C17.3647 18.0991 17.3298 18.0991 17.324 18.1283H17.359C17.3721 18.1332 17.3866 18.1332 17.3997 18.1283H17.4347" fill="#213469"/>
<path fill-rule="evenodd" clip-rule="evenodd" d="M27.9883 18.3558H27.8892H27.8427V18.3907C27.8481 18.3933 27.854 18.3946 27.8601 18.3946C27.8661 18.3946 27.8721 18.3933 27.8776 18.3907H27.9126H27.9417H27.9767L28.1165 18.3208" fill="#213469"/>
<path fill-rule="evenodd" clip-rule="evenodd" d="M28.3205 18.396V18.431C28.3205 18.431 28.3205 18.431 28.3205 18.4659H28.3962H28.4254C28.3776 18.479 28.3289 18.4887 28.2797 18.4951" fill="#213469"/>
<path fill-rule="evenodd" clip-rule="evenodd" d="M20.4767 18.9443C20.4525 18.9177 20.425 18.8942 20.3951 18.8744L20.3427 18.8277L20.2785 18.7811L20.2377 18.7461H20.2028L20.1212 18.6937H20.0862H19.9813C19.9476 18.6801 19.9124 18.6703 19.8764 18.6646H19.8007H19.7657H19.7307H19.6316H19.4976C19.5587 18.6766 19.619 18.6922 19.6783 18.7112L19.8357 18.7811C19.8357 18.7811 19.8357 18.8219 19.8357 18.8569C19.8357 18.8918 19.8357 18.8569 19.8357 18.8569V18.886V18.921L19.8007 18.9559H19.8357C19.856 18.9378 19.8798 18.9239 19.9056 18.9151L19.9755 18.8744H20.0163H20.0513H20.0862C20.0862 18.9152 20.0862 18.9268 20.0862 18.9443C20.0873 18.9579 20.0873 18.9715 20.0862 18.9851C20.0862 18.9851 20.0279 19.0375 20.0163 19.0783C20.0046 19.1191 20.0512 19.0783 20.0745 19.0783C20.0978 19.0783 20.1153 19.0783 20.1328 19.0492L20.1911 19.0142C20.1911 19.0142 20.2785 18.9501 20.3252 18.9618C20.3298 18.9708 20.3321 18.9808 20.3321 18.9909C20.3321 19.001 20.3298 19.011 20.3252 19.0201C20.3145 19.038 20.3007 19.0538 20.2843 19.0666V19.0958V19.1307C20.2843 19.1307 20.2843 19.1308 20.2843 19.1599C20.2843 19.189 20.2843 19.1599 20.2843 19.1599L20.4009 19.0958C20.4009 19.0958 20.4417 19.0958 20.4533 19.0608H20.4883C20.4883 19.0608 20.5291 19.0608 20.5408 19.0608C20.5447 19.0781 20.5447 19.096 20.5408 19.1133C20.5408 19.1133 20.5408 19.1483 20.5408 19.1599C20.5408 19.1716 20.6282 19.1191 20.6806 19.1016C20.7331 19.0841 20.7331 19.1016 20.7389 19.0434C20.7447 18.9851 20.6806 18.9909 20.6515 18.9734" fill="#213469"/>
<path fill-rule="evenodd" clip-rule="evenodd" d="M25.4476 18.7403H25.4126H25.3834H25.3427H25.4184C25.4184 18.7403 25.4184 18.6937 25.4184 18.6646L25.4476 18.7403Z" fill="#213469"/>
<path fill-rule="evenodd" clip-rule="evenodd" d="M20.4417 19.3112H20.3835H20.3369C20.3096 19.3232 20.2842 19.3389 20.2611 19.3578C20.2611 19.3578 20.2611 19.3578 20.2902 19.3578H20.3543H20.3893H20.4534L20.5058 19.3228C20.5466 19.2878 20.5874 19.2296 20.6224 19.2005C20.6574 19.1713 20.6224 19.2005 20.6224 19.2005L20.4359 19.2762" fill="#213469"/>
<path fill-rule="evenodd" clip-rule="evenodd" d="M16.0245 19.7598H15.9837L15.873 19.8355L15.8205 19.8705C15.7892 19.8931 15.7616 19.9207 15.739 19.9521C15.739 19.9521 15.739 19.9812 15.739 20.0045C15.739 20.0278 15.739 20.0045 15.739 20.0045H15.7739H15.8147L15.8555 19.9754H15.8905L15.9662 19.9346L16.0303 19.888H16.0653C16.0653 19.888 16.0653 19.888 16.0944 19.888C16.0944 19.888 16.0944 19.8588 16.0944 19.8472C16.0913 19.8408 16.0897 19.8338 16.0897 19.8268C16.0897 19.8197 16.0913 19.8128 16.0944 19.8064" fill="#213469"/>
<path fill-rule="evenodd" clip-rule="evenodd" d="M16.3565 19.8062C16.3565 19.8062 16.3216 19.8062 16.2983 19.8062C16.2821 19.8278 16.2597 19.8441 16.2342 19.8528H16.1992L16.1467 19.8936L16.0885 19.9343C16.0292 19.9705 15.9744 20.0135 15.9253 20.0626C15.9253 20.0626 15.9253 20.0626 15.9253 20.0975C15.9253 20.1325 15.9602 20.0975 15.9836 20.0975L16.0302 20.0684H16.071H16.106L16.2342 19.9985C16.2695 19.9741 16.309 19.9563 16.3507 19.946C16.3507 19.946 16.3507 19.946 16.3507 19.9169C16.3685 19.9044 16.381 19.8856 16.3857 19.8644C16.3857 19.8644 16.3857 19.8644 16.3391 19.8644" fill="#213469"/>
<path fill-rule="evenodd" clip-rule="evenodd" d="M16.4206 20.0689C16.4206 20.0689 16.4207 20.0689 16.3857 20.0689H16.3274H16.2924C16.2494 20.099 16.2085 20.1321 16.1701 20.1679L16.1118 20.2146C16.2113 20.1454 16.3165 20.0849 16.4265 20.0339C16.4265 20.0339 16.4265 20.0339 16.4265 19.9989C16.4265 19.964 16.4265 19.9989 16.4265 19.9989" fill="#213469"/>
<path fill-rule="evenodd" clip-rule="evenodd" d="M25.191 20.1388H25.1211H24.9813C24.888 20.1388 24.8006 20.1388 24.7074 20.1388H24.6724H24.6083H24.5734C24.5287 20.1362 24.4839 20.1362 24.4393 20.1388C24.4286 20.1326 24.4166 20.1294 24.4043 20.1294C24.3921 20.1294 24.38 20.1326 24.3693 20.1388C24.3661 20.1461 24.3645 20.1541 24.3645 20.1621C24.3645 20.1701 24.3661 20.1781 24.3693 20.1854H24.4859H24.5442H24.789H24.8822H24.9347H24.9871C25.0221 20.1854 25.0512 20.1854 25.0628 20.1388C25.0711 20.1388 25.0792 20.1368 25.0863 20.1327C25.0935 20.1286 25.0994 20.1228 25.1035 20.1157C25.1077 20.1086 25.1099 20.1005 25.1099 20.0923C25.1099 20.084 25.1077 20.076 25.1036 20.0688C25.1036 20.0688 25.0628 20.0688 25.0395 20.0688" fill="#213469"/>
<path fill-rule="evenodd" clip-rule="evenodd" d="M17.592 20.1499L17.5454 20.1907C17.5055 20.2255 17.4627 20.2567 17.4172 20.284H17.3647C17.3647 20.284 17.324 20.3248 17.3006 20.3306C17.2774 20.3378 17.2571 20.352 17.2424 20.3714C17.2133 20.3877 17.1876 20.4095 17.1666 20.4355H17.2016C17.2071 20.4381 17.213 20.4394 17.2191 20.4394C17.2251 20.4394 17.2311 20.4381 17.2366 20.4355H17.2832H17.3415H17.3881H17.4231L17.4813 20.3947H17.5104C17.5104 20.3947 17.5105 20.3947 17.4813 20.3947" fill="#213469"/>
<path fill-rule="evenodd" clip-rule="evenodd" d="M22.3123 20.3135L22.2365 20.3542C22.209 20.3633 22.1834 20.3771 22.1607 20.395H22.1199H22.0617C22.0581 20.4044 22.0581 20.4148 22.0617 20.4242H22.1082H22.1607C22.1607 20.4242 22.1607 20.4242 22.1898 20.4242L22.2365 20.3717L22.2773 20.3367C22.2804 20.3273 22.2804 20.3171 22.2773 20.3076C22.2773 20.3076 22.2773 20.3076 22.2773 20.3076C22.2773 20.3076 22.2773 20.3076 22.2423 20.3076" fill="#213469"/>
<path fill-rule="evenodd" clip-rule="evenodd" d="M16.6363 20.3135H16.5722C16.5668 20.3161 16.5609 20.3174 16.5548 20.3174C16.5488 20.3174 16.5428 20.3161 16.5373 20.3135C16.4661 20.3701 16.4016 20.4346 16.345 20.5058C16.345 20.5058 16.345 20.5058 16.31 20.5058L16.275 20.5408L16.3275 20.5058H16.3741L16.4557 20.4592L16.4965 20.4067C16.4965 20.4067 16.4965 20.3776 16.4965 20.3601C16.4965 20.3426 16.4965 20.3601 16.4965 20.3601" fill="#213469"/>
<path fill-rule="evenodd" clip-rule="evenodd" d="M18.2215 20.4008C18.1821 20.4098 18.1446 20.4256 18.1107 20.4474H18.0641H18.0349C18.0312 20.4506 18.0282 20.4547 18.0262 20.4592C18.0242 20.4637 18.0231 20.4687 18.0231 20.4736C18.0231 20.4786 18.0242 20.4835 18.0262 20.488C18.0282 20.4925 18.0312 20.4966 18.0349 20.4998L18.1165 20.4357C18.1165 20.4357 18.1806 20.4357 18.1748 20.3774" fill="#213469"/>
<path fill-rule="evenodd" clip-rule="evenodd" d="M22.4114 20.4595C22.4114 20.4595 22.4114 20.4595 22.3765 20.4595H22.3357H22.2949C22.2524 20.4642 22.211 20.476 22.1725 20.4945C22.1725 20.4945 22.1725 20.4945 22.1725 20.5353C22.1674 20.5524 22.1674 20.5706 22.1725 20.5877H22.2133H22.2891L22.3357 20.547H22.3707H22.3997L22.4522 20.5003C22.4944 20.4586 22.5391 20.4197 22.5863 20.3838C22.5863 20.3838 22.5863 20.3838 22.5863 20.3838C22.5863 20.3838 22.528 20.3838 22.5105 20.4304" fill="#213469"/>
<path fill-rule="evenodd" clip-rule="evenodd" d="M12.5513 21.7063H12.5863L12.6504 21.6655H12.6854V21.6364L12.7378 21.5956L12.8019 21.5489C12.8321 21.5202 12.8653 21.4948 12.901 21.4732C12.901 21.4732 12.9009 21.4732 12.9417 21.4382C12.9417 21.4382 12.9418 21.3974 12.9884 21.3916C13.035 21.3857 12.9884 21.3916 12.9884 21.3916C13.0108 21.3653 13.0362 21.3418 13.0642 21.3216L13.1515 21.2576L13.1923 21.2109C13.1923 21.2109 13.1923 21.2109 13.2389 21.176H13.2681C13.2681 21.176 13.373 21.0769 13.4196 21.0303H13.3846L13.2855 21.106C13.2855 21.106 13.2506 21.106 13.2448 21.141C13.2389 21.176 13.2448 21.141 13.2098 21.141C13.1749 21.141 13.2098 21.141 13.1748 21.141H13.3205L13.2739 21.176H13.2389L13.1515 21.2459L13.0874 21.2751C13.0627 21.2977 13.0353 21.3173 13.0058 21.3333C12.9894 21.3523 12.9697 21.3681 12.9476 21.3799L12.8951 21.4324C12.8495 21.4742 12.8067 21.519 12.7669 21.5664C12.8018 21.5707 12.837 21.5707 12.8718 21.5664" fill="#213469"/>
<path fill-rule="evenodd" clip-rule="evenodd" d="M13.1281 20.8325L13.0815 20.8616C13.0815 20.8616 13.0815 20.8616 13.0465 20.8616H12.9999L12.9591 20.8908H12.9125L12.8717 20.9257L12.8193 20.9607L12.7143 21.0423L12.6736 21.0773H12.6386L12.5745 21.1414L12.5279 21.1822L12.4755 21.2171V21.2462C12.4568 21.263 12.441 21.2827 12.4288 21.3045C12.4239 21.3177 12.4239 21.3322 12.4288 21.3453C12.4579 21.3453 12.4754 21.3453 12.5046 21.3453H12.5978H12.6386H12.6852C12.7144 21.3453 12.726 21.3104 12.7435 21.2929C12.761 21.2754 12.7435 21.2929 12.7843 21.2579C12.8251 21.223 12.7843 21.2579 12.7843 21.2579C12.8004 21.2496 12.8144 21.2376 12.8251 21.223C12.8392 21.2006 12.8547 21.1791 12.8717 21.1589L12.9184 21.1122L12.9999 21.0306C13.03 20.9966 13.0632 20.9654 13.099 20.9374L13.1456 20.8908L13.1981 20.8384C13.1981 20.8384 13.163 20.8384 13.1397 20.8384" fill="#213469"/>
<path fill-rule="evenodd" clip-rule="evenodd" d="M20.8555 20.931C20.8031 20.9567 20.7524 20.9859 20.704 21.0185L20.634 21.0593H20.599L20.5583 21.1C20.5553 21.1135 20.5553 21.1274 20.5583 21.1408H20.6049H20.6748C20.7034 21.1192 20.7307 21.0959 20.7564 21.0709C20.7564 21.0418 20.8147 21.0243 20.838 20.9951L20.9662 20.8669C20.9776 20.8634 20.9898 20.8634 21.0012 20.8669H20.9604" fill="#213469"/>
<path fill-rule="evenodd" clip-rule="evenodd" d="M28.1864 20.9368H28.1455L28.0815 20.9835C28.059 21.0041 28.0394 21.0276 28.0232 21.0534C28.0232 21.0825 28.0232 21.1059 28.0232 21.1292C28.0232 21.1525 28.0232 21.1583 28.0232 21.1641C28.0232 21.17 28.0232 21.1641 28.0232 21.2107C28.0232 21.2573 28.0232 21.2107 28.064 21.1641L28.1106 21.1175L28.1455 21.0825C28.164 21.0532 28.1855 21.0258 28.2097 21.0009L28.2505 20.9543L28.2912 20.9077C28.2892 20.9173 28.2892 20.9272 28.2912 20.9368" fill="#213469"/>
<path fill-rule="evenodd" clip-rule="evenodd" d="M12.5396 20.9721H12.5105H12.4464L12.3998 21.0071L12.3706 21.0362L12.324 21.077C12.2806 21.1088 12.2396 21.1439 12.2016 21.1819L12.1375 21.2343L12.0967 21.2693H12.0676C12.0676 21.2693 12.0326 21.2693 12.021 21.3101C11.9976 21.3364 11.978 21.3658 11.9627 21.3975C11.9408 21.428 11.9231 21.4613 11.9102 21.4966H11.986C12.0219 21.4958 12.0566 21.4835 12.0851 21.4616L12.1433 21.4208V21.3742C12.1433 21.3742 12.1899 21.3334 12.2133 21.3101C12.2413 21.2879 12.2668 21.2624 12.289 21.2343L12.3589 21.1586L12.423 21.0828L12.458 21.0479C12.458 21.0479 12.458 21.0479 12.493 21.0187C12.535 20.966 12.5818 20.9172 12.6328 20.873C12.6328 20.873 12.6328 20.873 12.6328 20.873L12.5396 20.9721Z" fill="#213469"/>
<path fill-rule="evenodd" clip-rule="evenodd" d="M28.472 21.0479L28.4254 21.077H28.3962V21.1061L28.3146 21.1702C28.3039 21.1915 28.2902 21.2111 28.2739 21.2285C28.2555 21.251 28.2339 21.2706 28.2098 21.2868C28.2098 21.3217 28.134 21.3334 28.1107 21.3567C28.0444 21.4086 27.9743 21.4554 27.9009 21.4966C27.8635 21.5205 27.8283 21.5478 27.796 21.5781L27.7494 21.6131C27.7494 21.6131 27.7144 21.6131 27.7494 21.6481C27.7843 21.683 27.7494 21.6481 27.7494 21.6481C27.7494 21.6481 27.7785 21.6481 27.8018 21.6481H27.8659H27.9067H27.9708H28.0057H28.0349C28.0611 21.6213 28.0905 21.5978 28.1223 21.5781L28.1573 21.549V21.5082C28.1671 21.5061 28.1764 21.5019 28.1844 21.4958C28.1925 21.4898 28.1991 21.4821 28.2039 21.4732C28.2039 21.4732 28.2039 21.4733 28.2389 21.4441L28.2739 21.3917V21.3509" fill="#213469"/>
<path fill-rule="evenodd" clip-rule="evenodd" d="M28.1923 21.7878C28.2333 21.7659 28.2723 21.7406 28.3088 21.712H28.3438C28.3438 21.712 28.3438 21.712 28.3438 21.6828C28.3416 21.6713 28.3416 21.6594 28.3438 21.6479V21.6129H28.3729L28.437 21.5488V21.5139L28.4895 21.4556C28.4895 21.4556 28.5245 21.4556 28.5245 21.4031V21.3682C28.5245 21.3682 28.4837 21.4089 28.4604 21.4264H28.4196L28.3788 21.4614L28.3205 21.5022L28.2739 21.5371L28.1982 21.6013H28.169L28.1107 21.6479L28.0525 21.6887L27.9359 21.7644C27.9359 21.7936 27.866 21.8111 27.8427 21.8402L27.796 21.8868C27.796 21.8868 27.796 21.8868 27.796 21.916C27.8989 21.9071 27.9985 21.8753 28.0874 21.8227" fill="#213469"/>
<path fill-rule="evenodd" clip-rule="evenodd" d="M21.0943 21.083C21.0473 21.1017 21.0024 21.1251 20.9603 21.1529H20.9078H20.8787H20.8262L20.7738 21.1937L20.733 21.2287C20.733 21.2287 20.733 21.2287 20.7738 21.2637H20.8321H20.867C20.8877 21.2475 20.9115 21.2356 20.9369 21.2287H20.9778L21.0302 21.1821C21.0429 21.1655 21.0588 21.1516 21.0768 21.1413L21.0943 21.083Z" fill="#213469"/>
<path fill-rule="evenodd" clip-rule="evenodd" d="M27.8252 21.2344L27.7669 21.2752L27.7203 21.3101L27.6562 21.3626C27.6562 21.3626 27.6562 21.3626 27.6154 21.3626H27.5862L27.528 21.415L27.4756 21.4558L27.4172 21.5141C27.4172 21.5141 27.3823 21.5432 27.3765 21.5665H27.4115C27.4115 21.5665 27.4114 21.5665 27.4522 21.5374C27.493 21.5082 27.4988 21.5374 27.5047 21.5374H27.5455H27.5921C27.6094 21.5343 27.6272 21.5343 27.6445 21.5374L27.6737 21.5083L27.7144 21.4733L27.7728 21.4092L27.8077 21.3742C27.8077 21.3742 27.8369 21.3101 27.8369 21.2693L27.8252 21.2344Z" fill="#213469"/>
<path fill-rule="evenodd" clip-rule="evenodd" d="M21.479 21.3213C21.479 21.3213 21.444 21.3213 21.4207 21.3563H21.3857H21.3508C21.3326 21.3732 21.3131 21.3888 21.2925 21.4029L21.24 21.4378C21.211 21.475 21.1755 21.5066 21.1352 21.5311C21.1352 21.5311 21.1352 21.5311 21.1352 21.5661C21.1352 21.601 21.1701 21.601 21.1993 21.5661C21.2284 21.5311 21.1992 21.5661 21.2342 21.5661C21.2342 21.5661 21.2692 21.5253 21.2983 21.5136C21.3274 21.502 21.2983 21.4786 21.3333 21.4611L21.3916 21.3912C21.3916 21.3912 21.4266 21.3621 21.4324 21.3446" fill="#213469"/>
<path fill-rule="evenodd" clip-rule="evenodd" d="M21.6713 21.5142L21.5839 21.5608L21.4907 21.6074C21.4907 21.6074 21.4907 21.6482 21.4382 21.6598H21.4032H21.3683H21.3275H21.2925C21.3122 21.6789 21.3362 21.6929 21.3625 21.7006H21.3974C21.4221 21.7083 21.4485 21.7083 21.4732 21.7006H21.514L21.5664 21.6657L21.613 21.6132L21.6538 21.5724" fill="#213469"/>
<path fill-rule="evenodd" clip-rule="evenodd" d="M22.0617 21.5486L21.9976 21.5953L21.9393 21.6361L21.8694 21.6769L21.8169 21.7176H21.782H21.747C21.747 21.7176 21.712 21.7177 21.7004 21.7468H21.6479H21.6129C21.6097 21.7602 21.6097 21.7742 21.6129 21.7876C21.6388 21.7942 21.6658 21.7951 21.692 21.79C21.7182 21.785 21.7429 21.7742 21.7645 21.7584H21.8227C21.8227 21.7584 21.8752 21.7584 21.8927 21.7584C21.8927 21.7584 21.8927 21.7584 21.8927 21.8051L21.8402 21.84H21.7995H21.7586C21.7586 21.84 21.8052 21.84 21.8111 21.84H21.8402C21.884 21.8359 21.9271 21.8261 21.9684 21.8109H22.0617C22.0617 21.8109 22.0617 21.8109 22.0617 21.8517L21.9568 21.9624H21.9218C21.9218 21.9624 21.8868 21.9624 21.881 21.9624C21.9174 21.9711 21.9554 21.9711 21.9917 21.9624H22.0383H22.085H22.1141L22.1666 21.9216L22.2656 21.8517C22.2656 21.8517 22.3181 21.8051 22.3239 21.7876C22.3239 21.7876 22.3239 21.7876 22.3239 21.7293L22.289 21.7584C22.2716 21.7553 22.2539 21.7553 22.2365 21.7584C22.2173 21.7551 22.1975 21.7551 22.1782 21.7584H22.1083C22.1083 21.7584 22.1433 21.7177 22.1608 21.7002C22.1783 21.6827 22.1607 21.6536 22.2132 21.6419C22.2656 21.6303 22.2132 21.6419 22.2132 21.6011C22.2132 21.5603 22.2132 21.5661 22.2132 21.5545C22.2132 21.5428 22.2132 21.5545 22.2132 21.5254C22.2132 21.4962 22.2132 21.5254 22.2132 21.5254C22.2132 21.5254 22.2132 21.4904 22.2132 21.4729C22.2132 21.4554 22.2132 21.4729 22.2132 21.4729L22.1141 21.5603C22.0956 21.5827 22.0741 21.6023 22.05 21.6186L21.9976 21.6594H21.9568C21.9466 21.6637 21.9358 21.6659 21.9247 21.6659C21.9137 21.6659 21.9028 21.6637 21.8927 21.6594C21.8927 21.6594 21.8927 21.6244 21.8927 21.6011C21.8927 21.5778 21.8927 21.6011 21.8927 21.5661C21.9076 21.5477 21.9213 21.5282 21.9335 21.5079C21.9335 21.5079 21.9335 21.5079 21.9335 21.4729L21.9684 21.4146L22.0034 21.3389L22.0617 21.5486Z" fill="#213469"/>
<path fill-rule="evenodd" clip-rule="evenodd" d="M19.7307 19.8476V19.9V19.9292C19.7307 19.9292 19.7307 19.9292 19.7307 19.9583C19.7307 19.9874 19.7656 19.9583 19.789 19.9991C19.8295 20.0057 19.8709 20.0057 19.9114 19.9991L20.1095 19.9175V19.9466V19.9758C20.1007 19.9933 20.0889 20.0091 20.0745 20.0224C20.0586 20.031 20.0447 20.0429 20.0337 20.0573C20.0337 20.0573 20.0337 20.0865 20.0337 20.0981C20.0337 20.1098 20.092 20.069 20.127 20.0632H20.1619H20.2202H20.2843C20.2679 20.0923 20.2462 20.118 20.2202 20.1389L20.1619 20.203C20.1619 20.203 20.1619 20.203 20.1619 20.2438C20.1619 20.2846 20.1619 20.2438 20.1619 20.2438C20.1619 20.2438 20.1619 20.2438 20.1619 20.2846C20.165 20.2899 20.1666 20.296 20.1666 20.3021C20.1666 20.3082 20.165 20.3143 20.1619 20.3196C20.1619 20.3196 20.1619 20.3604 20.1619 20.3662C20.1619 20.372 20.1095 20.3662 20.0803 20.3662C20.0512 20.3662 20.0804 20.3662 20.0337 20.3662C19.9871 20.3662 20.0337 20.3662 20.0337 20.3662L19.9755 20.4186H19.9288C19.9153 20.4213 19.9015 20.4213 19.888 20.4186C19.888 20.4186 19.888 20.4186 19.888 20.4478C19.888 20.4769 19.888 20.4478 19.888 20.4478C19.8785 20.4453 19.8684 20.4453 19.8589 20.4478C19.8589 20.4478 19.8589 20.4478 19.8123 20.4478C19.7902 20.4679 19.7645 20.4837 19.7365 20.4944C19.7365 20.4944 19.6958 20.4944 19.6841 20.4944H19.6433C19.6433 20.4944 19.6841 20.4944 19.6841 20.4536C19.7172 20.4333 19.7466 20.4077 19.7715 20.3779L19.8414 20.3138L19.8939 20.2671L19.9346 20.2322C19.9311 20.2168 19.9311 20.2009 19.9346 20.1856L19.9696 20.1506V20.1214C19.9696 20.0865 20.0046 20.0457 19.9696 20.0224L19.8414 20.0981C19.8279 20.1008 19.8141 20.1008 19.8006 20.0981L19.7249 20.1506C19.6484 20.2077 19.5686 20.2602 19.4859 20.3079C19.4859 20.3079 19.4859 20.2613 19.4859 20.2497V20.2205L19.585 20.1214L19.7249 19.9758L19.7599 19.935C19.757 19.9195 19.757 19.9038 19.7599 19.8884C19.7705 19.8775 19.7765 19.8628 19.7765 19.8476C19.7765 19.8323 19.7705 19.8177 19.7599 19.8068C19.7052 19.8383 19.6527 19.8734 19.6025 19.9117L19.4917 19.9874C19.4783 19.9901 19.4644 19.9901 19.451 19.9874C19.4659 19.969 19.4795 19.9495 19.4917 19.9292C19.4917 19.9292 19.4917 19.9291 19.4917 19.9C19.4917 19.8709 19.5267 19.8592 19.5267 19.8476C19.5267 19.8359 19.5267 19.8476 19.5267 19.8126H19.4976H19.4626C19.4301 19.82 19.3988 19.8318 19.3694 19.8476C19.3694 19.8476 19.3111 19.8884 19.282 19.8767C19.2528 19.865 19.282 19.8767 19.282 19.8767H19.1887H19.1596V19.8476C19.1728 19.8427 19.1872 19.8427 19.2004 19.8476L19.2936 19.8126H19.3286H19.3636C19.4085 19.796 19.4515 19.7745 19.4917 19.7485L19.6783 19.6494C19.6321 19.698 19.5964 19.7555 19.5733 19.8184H19.6142H19.6549H19.6899C19.7237 19.7986 19.7587 19.7811 19.7948 19.766C19.8138 19.749 19.8355 19.7353 19.8589 19.7252" fill="#213469"/>
<path fill-rule="evenodd" clip-rule="evenodd" d="M20.3136 20.4595C20.3052 20.4825 20.2934 20.5041 20.2786 20.5236L20.2378 20.5702L20.197 20.611C20.1826 20.622 20.1707 20.6359 20.162 20.6518C20.162 20.6518 20.1621 20.6518 20.1213 20.6868L20.0804 20.7392C20.0804 20.7392 20.0805 20.7392 20.0338 20.7683C20.0218 20.7834 20.008 20.797 19.993 20.8091L19.9581 20.8383L19.9057 20.8732H19.8473L19.7774 20.914C19.7366 20.914 19.725 20.9432 19.69 20.949C19.6551 20.9548 19.69 20.949 19.69 20.949C19.7241 20.913 19.7611 20.8798 19.8007 20.8499H19.8299L19.9115 20.7625C19.9138 20.749 19.9138 20.7352 19.9115 20.7217H19.9464L19.9814 20.6926L20.0397 20.6576C20.0786 20.6295 20.1195 20.6042 20.162 20.5819" fill="#213469"/>
<path fill-rule="evenodd" clip-rule="evenodd" d="M15.1852 20.5061L15.0978 20.576H15.0686L15.0162 20.6284H14.9754C14.9754 20.6284 14.9754 20.6284 14.9229 20.6284C14.8705 20.6284 14.9229 20.6284 14.9695 20.5818L15.0104 20.5469C15.0104 20.5469 15.0103 20.5469 15.0453 20.5469L15.1094 20.4827L15.1444 20.4536H15.191H15.2201L15.4008 20.3662" fill="#213469"/>
<path fill-rule="evenodd" clip-rule="evenodd" d="M14.282 20.5933L14.1945 20.6865L14.0605 20.8147L14.0197 20.8613L13.9789 20.9021L13.8973 20.9779V21.007C13.8669 21.0355 13.8337 21.0608 13.7982 21.0828L13.7341 21.141L13.6817 21.1818C13.6639 21.1901 13.648 21.202 13.6351 21.2168H13.606C13.606 21.2168 13.606 21.2459 13.5594 21.2518L13.5127 21.3042C13.5127 21.3042 13.4603 21.3042 13.4544 21.3509C13.4478 21.3591 13.4442 21.3694 13.4442 21.38C13.4442 21.3906 13.4478 21.4009 13.4544 21.4091C13.4592 21.4174 13.466 21.4245 13.4741 21.4295C13.4823 21.4346 13.4915 21.4376 13.5011 21.4383C13.5309 21.4181 13.5582 21.3947 13.5826 21.3683L13.6468 21.3101H13.6875L13.7225 21.2809L13.7866 21.2226L13.8624 21.1644L13.909 21.1178L13.9906 21.0362L14.0547 20.9837L14.1129 20.9429H14.1479C14.1479 20.9429 14.1479 20.9429 14.1887 20.9429C14.2192 20.9162 14.2524 20.8928 14.2878 20.873C14.2528 20.9196 14.212 20.9546 14.177 21.0012C14.177 21.0012 14.1771 21.0012 14.1421 21.0012C14.1167 21.0187 14.0965 21.0429 14.0838 21.0711C14.0489 21.0711 14.0256 21.1177 13.9964 21.141L13.9323 21.1935C13.8718 21.2434 13.8153 21.2979 13.7633 21.3567L13.6992 21.3975L13.6525 21.4383V21.4674L13.6118 21.5024L13.5419 21.5665C13.5103 21.5913 13.4828 21.6207 13.4603 21.6539H13.4195H13.3845H13.2505L12.7085 21.683C12.7238 21.6791 12.7399 21.6791 12.7552 21.683H12.7901H12.8251C12.8251 21.683 12.8251 21.683 12.8251 21.6539H12.8833C12.8833 21.6539 12.8834 21.6539 12.9183 21.6131H12.9533C12.9706 21.5911 12.9924 21.5733 13.0174 21.5606C13.0815 21.4965 13.1572 21.4383 13.2272 21.3742L13.3087 21.3101C13.3194 21.2954 13.3334 21.2834 13.3496 21.2751C13.3496 21.2751 13.3496 21.2401 13.402 21.2285C13.4171 21.2121 13.4348 21.1983 13.4544 21.1877L13.4953 21.1585L13.5535 21.1119L13.5885 21.077H13.6176L13.6584 21.042H13.6934H13.7341L13.7808 21.0129C13.7808 21.0129 13.7808 21.0129 13.8274 21.0129" fill="#213469"/>
<path fill-rule="evenodd" clip-rule="evenodd" d="M25.7505 21.0943C25.7543 21.0859 25.76 21.0784 25.767 21.0723C25.7741 21.0663 25.7824 21.0619 25.7913 21.0593L25.8554 21.0127L25.902 20.9777L25.937 20.9486C25.937 20.9486 25.9369 20.9486 25.9719 20.9486C26.0069 20.9486 25.9719 20.9486 25.9719 20.9486C25.9719 20.9486 25.9719 20.9486 26.0069 20.9486L26.1059 20.8787C26.1059 20.8787 26.1468 20.8379 26.1701 20.8379L26.1002 20.9253L26.0418 20.9952L25.9952 21.0477H25.9486C25.9278 21.0635 25.9083 21.081 25.8903 21.1001C25.8903 21.1001 25.8495 21.1001 25.8321 21.1001C25.8129 21.1065 25.7952 21.1164 25.7796 21.1293H25.6922" fill="#213469"/>
<path fill-rule="evenodd" clip-rule="evenodd" d="M11.8519 21.1699C11.8519 21.1699 11.8519 21.1699 11.8053 21.1699H11.7703L11.7354 21.2049H11.7004L11.6538 21.2515C11.6166 21.2865 11.5777 21.3196 11.5372 21.3506L11.4964 21.3856H11.4557C11.4432 21.4024 11.4273 21.4162 11.409 21.4263V21.5837H11.4557V21.5546L11.4964 21.5079L11.5256 21.4671L11.5605 21.4263L11.5955 21.3914" fill="#213469"/>
<path fill-rule="evenodd" clip-rule="evenodd" d="M29.6375 21.6362H29.6025H29.5676H29.5384L29.4977 21.6654C29.4977 21.6654 29.4976 21.6654 29.4627 21.6654L29.3927 21.712H29.352L29.3111 21.7411C29.3111 21.7411 29.3111 21.7411 29.3111 21.7761C29.3074 21.7894 29.3074 21.8035 29.3111 21.8169H29.3695H29.4102C29.4102 21.8169 29.4103 21.8169 29.4511 21.8169C29.4919 21.8169 29.4511 21.8169 29.4511 21.8169C29.4683 21.8211 29.4863 21.8211 29.5035 21.8169C29.5035 21.8169 29.5035 21.8169 29.5443 21.8169C29.5851 21.8169 29.5443 21.8169 29.5443 21.8169L29.6434 21.7528L29.6375 21.6362Z" fill="#213469"/>
<path fill-rule="evenodd" clip-rule="evenodd" d="M29.6375 21.2461L29.5559 21.3102L29.3578 21.4559L29.1363 21.6191L29.0839 21.654L29.0023 21.7007L28.9498 21.7473L28.909 21.7939C28.897 21.8089 28.8833 21.8226 28.8683 21.8347C28.8503 21.8458 28.836 21.862 28.8275 21.8813C28.8275 21.8813 28.8624 21.8813 28.8857 21.8813C28.909 21.8813 28.8857 21.8813 28.8857 21.8813H28.9324L29.0955 21.8172C29.1203 21.7874 29.1498 21.7618 29.1829 21.7415H29.2121L29.2587 21.689H29.2995L29.3403 21.654C29.3403 21.654 29.3403 21.654 29.3753 21.654C29.4248 21.6104 29.4715 21.5637 29.5151 21.5142L29.5851 21.4501L29.6258 21.4209V21.3802L29.6375 21.2461Z" fill="#213469"/>
<path d="M104.259 26.7239H99.1245L97.557 22.9418H89.0022L87.5745 26.7239H82.5278L90.2434 7.57471H95.7679L104.259 26.7239ZM93.0698 12.1551L90.2434 19.5793H96.1292L93.0698 12.1551Z" fill="#B91F31"/>
<path d="M111.129 7.58057H106.362V26.7064H111.129V7.58057Z" fill="#B91F31"/>
<path d="M123.664 7.57471C130.657 7.57471 134.235 11.922 134.235 17.1668C134.235 22.6621 130.739 26.7006 123.128 26.7006H115.22V7.57471H123.664ZM119.964 23.2274H123.082C127.872 23.2274 129.305 19.9698 129.305 17.1668C129.305 13.8859 127.557 11.112 123.023 11.112H119.964V23.2274Z" fill="#B91F31"/>
<path d="M11.3973 29.3521C11.4779 29.8061 11.6555 30.2374 11.918 30.6166C12.1805 30.9957 12.5217 31.3138 12.9184 31.549V29.3521H11.3973Z" fill="#B91F31"/>
<path d="M13.7225 29.3521H15.8088V32.7378C15.0886 32.5754 14.3888 32.3331 13.7225 32.0152V29.3521Z" fill="#B91F31"/>
<path d="M16.613 29.3521V32.901C16.613 32.901 17.3531 33.035 17.4755 33.0409C17.8922 33.0873 18.3025 33.1792 18.6993 33.3147V29.3521H16.613Z" fill="#B91F31"/>
<path d="M29.6667 29.3521C29.5844 29.8062 29.4054 30.2374 29.142 30.6165C28.8786 30.9955 28.5369 31.3135 28.1399 31.549V29.3521H29.6667Z" fill="#B91F31"/>
<path d="M27.3415 29.3521H25.2493V32.7378C25.9712 32.5748 26.6729 32.3325 27.3415 32.0152V29.3521Z" fill="#B91F31"/>
<path d="M24.486 29.3521V32.901C24.486 32.901 23.746 33.035 23.6236 33.0409C23.2049 33.0866 22.7925 33.1785 22.3939 33.3147V29.3521H24.486Z" fill="#B91F31"/>
<path d="M20.5525 34.6434C20.3028 34.2345 19.9514 33.8972 19.5327 33.6644V29.3521H21.5664V33.6644C21.15 33.8982 20.8007 34.2354 20.5525 34.6434Z" fill="#B91F31"/>
<path d="M13.2389 27.2658H13.9557L13.3788 27.697L13.6002 28.373V28.3789L13.0291 27.9593L12.4638 28.3789L12.458 28.373L12.6795 27.697L12.1026 27.2658H12.8135L13.0291 26.5957L13.2389 27.2658Z" fill="white"/>
<path d="M15.7564 27.2658H16.4732L15.8963 27.697L16.1176 28.373L16.1118 28.3789L15.5466 27.9593L14.9813 28.3789L14.9755 28.373L15.2027 27.697L14.6199 27.2658H15.3309L15.5466 26.5957H15.5524L15.7564 27.2658Z" fill="white"/>
<path d="M18.2738 27.2658H18.9906L18.4136 27.697L18.6352 28.373V28.3789L18.0641 27.9593L17.4988 28.3789L17.493 28.373L17.7144 27.697L17.1375 27.2658H17.8484L18.0641 26.5957L18.2738 27.2658Z" fill="white"/>
<path d="M20.7913 27.2658H21.5081L20.9312 27.697L21.1527 28.373L21.1468 28.3789L20.5815 27.9593L20.0162 28.3789L20.0104 28.373L20.2377 27.697L19.655 27.2658H20.3659L20.5815 26.5957L20.7913 27.2658Z" fill="white"/>
<path d="M23.3088 27.2658H24.0256L23.4487 27.697L23.6701 28.373L23.6642 28.3789L23.099 27.9593L22.5337 28.3789L22.5279 28.373L22.7494 27.697L22.1725 27.2658H22.8834L23.099 26.5957H23.1048L23.3088 27.2658Z" fill="white"/>
<path d="M25.8262 27.2658H26.5431L25.9661 27.697L26.1876 28.373L26.1818 28.3789L25.6165 27.9593L25.0513 28.3789L25.0454 28.373L25.2668 27.697L24.6899 27.2658H25.4008L25.6165 26.5957H25.6223L25.8262 27.2658Z" fill="white"/>
<path d="M28.3437 27.2658H29.0605L28.4836 27.697L28.7109 28.373L28.7051 28.3789L28.134 27.9593L27.5686 28.3789L27.5629 28.373L27.7901 27.697L27.2074 27.2658H27.9183L28.134 26.5957H28.1399L28.3437 27.2658Z" fill="white"/>
<path d="M16.3858 10.6279V12.3354C16.3858 13.3319 15.704 13.6757 14.8823 13.6757C14.0606 13.6757 13.3788 13.2678 13.3788 12.3412V10.6279H14.1306V12.3762C14.1285 12.4716 14.1466 12.5664 14.1838 12.6543C14.2209 12.7421 14.2763 12.8212 14.3462 12.8861C14.4162 12.9511 14.499 13.0005 14.5894 13.0311C14.6798 13.0618 14.7757 13.0729 14.8707 13.0638C14.9717 13.0754 15.074 13.0644 15.1703 13.0316C15.2666 12.9988 15.3544 12.9451 15.4274 12.8743C15.5004 12.8036 15.5568 12.7175 15.5926 12.6222C15.6283 12.527 15.6424 12.4251 15.634 12.3237V10.6454L16.3858 10.6279Z" fill="white"/>
<path d="M19.0489 11.4091C18.755 11.2529 18.4311 11.1616 18.099 11.141C17.8309 11.141 17.6561 11.2401 17.6561 11.3858C17.6561 11.8403 19.1887 11.7121 19.1887 12.761C19.1887 13.3438 18.7051 13.676 18.0232 13.676C17.6419 13.6812 17.2666 13.5803 16.9393 13.3846V12.7378C17.2312 12.9725 17.5907 13.1073 17.965 13.1224C18.2505 13.1224 18.402 13.0233 18.402 12.8485C18.402 12.3531 16.8752 12.5338 16.8752 11.4557C16.8752 10.937 17.324 10.5874 18.0407 10.5874C18.3919 10.5937 18.7377 10.6752 19.0547 10.8263L19.0489 11.4091Z" fill="white"/>
<path d="M22.7902 13.6349H21.9802L21.7354 13.0522H20.3893L20.1678 13.6349H19.3694L20.5874 10.6279H21.479L22.7902 13.6349ZM21.0419 11.3505L20.599 12.516H21.5256L21.0419 11.3505Z" fill="white"/>
<path d="M23.9149 10.6338H23.1631V13.6407H23.9149V10.6338Z" fill="white"/>
<path d="M25.9254 10.6285C26.1367 10.6034 26.3509 10.624 26.5535 10.6889C26.7562 10.7537 26.9425 10.8613 27.1 11.0044C27.2575 11.1475 27.3824 11.3228 27.4663 11.5183C27.5502 11.7138 27.591 11.9251 27.5862 12.1378C27.5862 13.0003 27.0443 13.6355 25.838 13.6355H24.5909V10.6285H25.9254ZM25.3427 13.0877H25.8321C25.9635 13.098 26.0956 13.081 26.2201 13.0378C26.3446 12.9946 26.4588 12.9261 26.5556 12.8366C26.6524 12.7471 26.7296 12.6386 26.7824 12.5178C26.8352 12.3971 26.8624 12.2667 26.8624 12.1349C26.8624 12.0032 26.8352 11.8728 26.7824 11.752C26.7296 11.6313 26.6524 11.5227 26.5556 11.4333C26.4588 11.3438 26.3446 11.2753 26.2201 11.2321C26.0956 11.1889 25.9635 11.1719 25.8321 11.1821H25.3485L25.3427 13.0877Z" fill="white"/>
<path d="M185.978 3.67041V16.59H169.702V23.0119V23.0294H185.978V36.0539H192.423V23.0294H221.368V16.59H192.411V3.67041H185.978Z" fill="#FDD500"/>
<path d="M169.702 36.048H185.978V23.0293H169.702V36.048Z" fill="#005C97"/>
<path d="M185.978 3.67041H169.702V16.59H185.978V3.67041Z" fill="#005C97"/>
<path d="M221.374 23.0229H192.423V36.0474H221.374V23.0229Z" fill="#005C97"/>
<path d="M221.374 3.67041H192.417V16.59H221.374V3.67041Z" fill="#005C97"/>
<path d="M229.836 8.85647C228.781 8.43107 227.977 7.80167 227.977 6.46134C227.977 4.71309 229.329 3.66998 231.024 3.66998C231.414 3.64326 231.805 3.70032 232.17 3.8373C232.536 3.97427 232.868 4.18799 233.144 4.46408C233.42 4.74017 233.634 5.0722 233.771 5.43783C233.908 5.80346 233.965 6.1942 233.938 6.58373L232.598 6.89841C232.458 5.65132 231.887 5.09189 231.013 5.09189C230.243 5.09189 229.503 5.51731 229.503 6.33899C229.503 7.16067 230.243 7.45787 230.832 7.69097L232.213 8.23876C233.431 8.71662 234.264 9.40424 234.264 10.7679C234.264 12.5744 232.843 13.5884 231.053 13.5884C229.119 13.5884 227.714 12.4229 227.697 10.4415L229.043 10.1677C229.206 11.4264 229.818 12.1781 231.024 12.1781C231.858 12.1781 232.732 11.8227 232.732 10.8611C232.732 9.8996 231.98 9.69563 231.17 9.39843L229.836 8.85647Z" fill="#125995"/>
<path d="M239.742 13.4952L238.647 10.0395L237.563 13.4952H236.153L234.422 6.56055H235.826L237.073 11.2341L238.18 7.49293H239.124L240.232 11.2341L241.479 6.56055H242.872L241.147 13.4952H239.742Z" fill="#125995"/>
<path d="M244.398 10.5001C244.562 11.9337 245.354 12.2076 245.995 12.2076C246.316 12.2141 246.632 12.1383 246.915 11.9872C247.198 11.8362 247.437 11.6151 247.609 11.3451L248.868 11.6714C248.67 12.2575 248.284 12.7617 247.769 13.1053C247.255 13.4489 246.641 13.6127 246.024 13.5712C244.422 13.5712 242.889 12.633 242.889 10.0747C242.889 7.51643 244.462 6.50244 245.983 6.50244C247.504 6.50244 249.06 7.44649 249.06 10.063V10.5293L244.398 10.5001ZM247.528 9.3346C247.324 8.08751 246.601 7.84276 246.024 7.84276C245.354 7.84276 244.655 8.19824 244.41 9.3346H247.528Z" fill="#125995"/>
<path d="M254.579 13.4951L254.521 12.8657C254.064 13.3192 253.445 13.5728 252.802 13.5708C251.42 13.5708 249.806 12.6326 249.806 10.0161C249.806 7.39951 251.421 6.47876 252.755 6.47876C253.405 6.47598 254.032 6.72442 254.503 7.17223V3.75732H255.954V13.4951H254.579ZM254.48 9.54986C254.305 8.3494 253.606 7.84237 252.825 7.84237C252.155 7.84237 251.281 8.20951 251.281 10.0335C251.281 11.8575 252.143 12.2072 252.854 12.2072C253.258 12.2251 253.653 12.0858 253.956 11.8184C254.259 11.5511 254.447 11.1765 254.48 10.7736V9.54986Z" fill="#125995"/>
<path d="M258.338 10.5001C258.501 11.9337 259.294 12.2076 259.935 12.2076C260.255 12.2141 260.572 12.1383 260.854 11.9872C261.137 11.8362 261.376 11.6151 261.549 11.3451L262.808 11.6714C262.61 12.2575 262.223 12.7617 261.709 13.1053C261.195 13.4489 260.581 13.6127 259.964 13.5712C258.367 13.5712 256.834 12.633 256.834 10.0747C256.834 7.51643 258.402 6.50244 259.923 6.50244C261.444 6.50244 263 7.44649 263 10.063V10.5293L258.338 10.5001ZM261.467 9.3346C261.263 8.08751 260.541 7.84276 259.964 7.84276C259.294 7.84276 258.594 8.19824 258.349 9.3346H261.467Z" fill="#125995"/>
<path d="M267.872 13.4953V9.48601C267.872 8.11654 267.19 7.84265 266.706 7.84265C266.355 7.84673 266.019 7.98481 265.767 8.22856C265.514 8.47232 265.365 8.80331 265.348 9.15383V13.4953H263.903V6.56062H265.243L265.284 7.14337C265.719 6.73349 266.29 6.49892 266.887 6.48486C267.982 6.48486 269.334 7.24244 269.334 9.39861V13.5303L267.872 13.4953Z" fill="#125995"/>
<path d="M230.867 28.2502C229.119 27.5567 227.837 26.5019 227.837 24.3516C227.837 21.4961 230.045 19.8062 232.807 19.8062C235.57 19.8062 237.469 21.5544 237.528 24.5264L235.348 25.0392C235.121 23.0113 234.183 22.0964 232.761 22.0964C231.514 22.0964 230.313 22.7898 230.313 24.1243C230.313 25.4588 231.514 25.9542 232.475 26.333L234.725 27.2246C236.706 28.0054 238.064 29.0719 238.064 31.3446C238.064 34.2875 235.733 35.9367 232.819 35.9367C229.678 35.9367 227.376 34.0194 227.359 30.8143L229.538 30.3656C229.812 32.4169 230.814 33.6406 232.772 33.6406C234.13 33.6406 235.558 33.0579 235.558 31.502C235.558 30.0509 234.334 29.6313 233.017 29.1185L230.867 28.2502Z" fill="#125995"/>
<path d="M251.135 30.9255C251.403 33.2565 252.697 33.7052 253.74 33.7052C254.262 33.7156 254.778 33.5926 255.239 33.3479C255.699 33.1031 256.09 32.7447 256.374 32.3066L258.419 32.8369C257.837 34.7367 256.088 35.9372 253.787 35.9372C251.182 35.9372 248.688 34.3987 248.688 30.1854C248.688 25.9721 251.246 24.3579 253.717 24.3579C256.187 24.3579 258.734 25.8964 258.734 30.1504V30.9138L251.135 30.9255ZM256.24 29.0316C255.902 27.0036 254.725 26.6015 253.787 26.6015C252.697 26.6015 251.56 27.1843 251.158 29.0316H256.24Z" fill="#125995"/>
<path d="M267.19 35.8028V33.6407H269.463V26.6477H267.19V24.4857H271.776V33.6233H274.055V35.7853L267.19 35.8028ZM270.599 23.058C270.182 23.0231 269.794 22.833 269.511 22.5254C269.229 22.2178 269.071 21.8151 269.071 21.3972C269.071 20.9792 269.229 20.5766 269.511 20.269C269.794 19.9613 270.182 19.7712 270.599 19.7363C271.039 19.7363 271.462 19.9113 271.773 20.2228C272.085 20.5342 272.26 20.9567 272.26 21.3972C272.26 21.8376 272.085 22.2601 271.773 22.5715C271.462 22.883 271.039 23.058 270.599 23.058Z" fill="#125995"/>
<path d="M282.044 34.8242C281.31 35.5407 280.325 35.9405 279.299 35.9372C277.05 35.9372 274.422 34.3987 274.422 30.1447C274.422 25.8906 277.05 24.3696 279.276 24.3696C280.336 24.3718 281.353 24.7904 282.108 25.5351L282.172 24.4862H284.404V35.7857C284.404 38.4838 282.487 40.4885 279.48 40.4885C277.149 40.4885 275.447 39.323 274.888 37.3882L276.939 36.858C277.221 37.296 277.611 37.6544 278.071 37.8993C278.531 38.1441 279.046 38.2671 279.567 38.2565C279.899 38.2858 280.234 38.2421 280.547 38.1284C280.861 38.0146 281.145 37.8337 281.381 37.5982C281.617 37.3627 281.799 37.0785 281.914 36.7653C282.028 36.4522 282.073 36.1179 282.044 35.7857V34.8242ZM282.044 29.3871C281.753 27.4232 280.616 26.6015 279.346 26.6015C278.256 26.6015 276.828 27.2251 276.828 30.1622C276.828 33.0992 278.227 33.7053 279.392 33.7053C280.05 33.7332 280.692 33.5064 281.186 33.0721C281.68 32.6378 281.988 32.0296 282.044 31.3743V29.3871Z" fill="#125995"/>
<path d="M288.303 30.9255C288.571 33.2565 289.865 33.7052 290.908 33.7052C291.429 33.7163 291.944 33.5935 292.404 33.3487C292.864 33.1038 293.254 32.745 293.536 32.3066L295.593 32.8369C295.01 34.7367 293.262 35.9372 290.931 35.9372C288.326 35.9372 285.826 34.3987 285.826 30.1854C285.826 25.9721 288.39 24.3579 290.867 24.3579C293.344 24.3579 295.879 25.8964 295.879 30.1504V30.9138L288.303 30.9255ZM293.408 29.0316C293.07 27.0036 291.893 26.6015 290.954 26.6015C289.865 26.6015 288.722 27.1843 288.326 29.0316H293.408Z" fill="#125995"/>
<path d="M266.234 24.5265C265.878 24.4332 265.512 24.3823 265.144 24.375C264.097 24.4904 263.133 24.9985 262.446 25.7969L262.359 24.5091H260.156V35.8028H262.487V29.2759C262.796 27.4694 263.891 26.8692 264.888 26.8692C265.331 26.8877 265.772 26.9462 266.205 27.044L266.234 24.5265Z" fill="#125995"/>
<path d="M242.347 35.803L238.332 24.5093H240.785L243.507 32.5571L246.234 24.5093H248.676L244.661 35.803H242.347Z" fill="#125995"/>
</svg>
